<svg width="1075" height="465" viewBox="0 0 1075 465" fill="none" xmlns="http://www.w3.org/2000/svg">
<path d="M2050.44 735.134C2046.14 737.559 2041.49 739.122 2036.57 739.965C2001.23 745.901 1950.26 715.22 1877.64 687.277C1855.43 678.748 1828.64 676.158 1802.49 680.633C1761.24 687.712 1721.59 712.267 1703.31 758.79C1680.5 816.905 1664.22 890.093 1639.98 967.451C1627.86 1006.12 1613.75 1045.85 1595.86 1085.27C1578.42 1123.35 1563.3 1178.86 1521.87 1186.12C1520.72 1186.32 1519.56 1186.47 1518.4 1186.58C1399.7 1197.81 1245.94 1065.72 1086.52 1028.43C983.28 1004.26 900.858 1010.81 842.199 1020.85C827.193 1023.42 813.721 1026.23 801.872 1028.78C780.419 1033.42 759.341 1037.55 738.516 1041.11C679.75 1051.17 622.988 1056.65 565.33 1055.61C479.428 1054 369.089 1035.5 259.372 997.034C217.165 982.184 178.126 958.918 172.289 925.318C171.691 921.823 171.444 918.201 171.624 914.506C173.932 868.5 228.547 809.442 319.473 755.008C417.07 696.866 524.85 663.879 585.823 620.691C609.544 603.798 615.339 581.504 611.614 559.478C608.678 542.319 599.814 525.385 588.937 511.823C530.072 438.593 432.547 413.047 386.086 357.176C376.734 345.854 370.794 332.171 368.165 316.803C357.39 253.443 402.194 161.663 492.523 85.919C607.195 -10.0059 762.466 -70.9955 921.241 -98.1625C968.07 -106.175 1015.19 -111.231 1061.68 -113.394C1263.46 -122.69 1414.74 -87.7596 1526.92 -56.2971C1623.03 -29.3016 1709.64 7.23772 1785.41 60.6396C1936.88 167.365 2047.44 331.772 2081.1 528.509C2097.64 625.941 2093.29 710.625 2050.44 735.134ZM260.078 995.004C369.564 1033.4 479.721 1051.87 565.356 1053.45C622.861 1054.49 679.471 1049.02 738.151 1038.98C758.933 1035.42 779.99 1031.3 801.422 1026.66C813.289 1024.08 826.786 1021.29 841.834 1018.72C900.664 1008.65 983.434 1002.08 1087.01 1026.33C1247.04 1063.95 1401.11 1195.81 1518.18 1184.45C1519.31 1184.34 1520.42 1184.18 1521.51 1183.99C1560.97 1177.41 1576.47 1122.85 1593.86 1084.36C1611.73 1045.06 1625.79 1005.42 1637.89 966.799C1662.11 889.555 1678.39 816.367 1701.27 757.999C1719.87 710.675 1760.28 685.64 1802.1 678.505C1828.64 673.965 1855.76 676.585 1878.4 685.262C1951.09 713.368 2002.38 743.753 2036.17 737.862C2040.88 737.056 2045.27 735.558 2049.35 733.258C2090.48 710.25 2095.63 626.109 2078.93 528.881C2045.37 332.74 1935.16 168.823 1784.13 62.3729C1708.61 9.14776 1622.23 -27.3001 1526.29 -54.2359C1414.2 -85.6703 1263.22 -120.52 1061.74 -111.254C1015.33 -109.106 968.282 -104.039 921.56 -96.0451C763.082 -68.9291 608.146 -8.04058 493.859 87.5769C403.867 162.978 359.573 254.408 370.254 316.445C372.828 331.494 378.592 344.79 387.716 355.8C433.345 410.914 531.094 436.619 590.591 510.465C601.665 524.279 610.705 541.468 613.724 559.117C617.633 581.703 611.445 605.162 587.046 622.456C525.538 665.977 417.871 698.857 320.558 756.863C229.83 811.043 175.777 870.181 173.768 914.6C173.609 918.16 173.827 921.611 174.399 924.957C174.407 925 174.414 925.042 174.421 925.085C179.895 957.079 218.092 980.293 260.078 995.004Z" fill="#16A2FF"/>
<path d="M2047.18 535.037C2062.82 630.89 2055.89 711.956 2012.37 732.148C2008.99 733.67 2005.42 734.742 2001.71 735.376C1965.14 741.503 1912.6 707.974 1836.83 680.702C1817.01 673.585 1793.81 671.74 1770.81 675.675C1727.48 683.09 1684.88 710.936 1666.1 762.502C1644.35 822.433 1628.18 896.677 1603.7 974.295C1591.47 1013.09 1577.15 1052.75 1558.99 1091.88C1542.06 1128.21 1524.85 1179.31 1486.04 1186.11C1483.29 1186.58 1480.44 1186.83 1477.47 1186.81C1353.95 1186.11 1202.48 1062.89 1046.43 1027.37C934.601 1001.97 847.454 1011.94 788.348 1022.06C780.163 1023.46 772.525 1024.85 765.446 1026.17C756.131 1027.9 746.87 1029.55 737.684 1031.12C663.87 1043.75 594.368 1051.32 523.885 1050.08C437.621 1048.54 327.948 1032.01 223.921 991.537C187.484 977.325 155.316 953.957 150.033 923.466C149.041 917.668 149.04 911.635 150.186 905.384C159.173 857.511 218.755 800.038 313.051 747.353C411.483 692.425 516.253 662.103 569.855 618.531C588.042 603.66 592.319 584.543 589.028 565.054C585.632 545.209 574.187 525.119 561.365 509.674C500.838 436.991 403.211 411.616 358.141 355.024C349.522 344.147 344.034 331.177 341.558 316.704C330.695 252.833 377.833 159.82 470.672 83.9975C584.119 -8.44876 735.396 -67.0001 890.058 -93.4632C939.85 -101.983 989.994 -107.162 1039.36 -109.092C1239.44 -116.76 1389.22 -81.5275 1500.39 -49.563C1595.84 -22.0386 1681.65 14.835 1756.54 68.365C1905.11 174.534 2013.28 336.782 2046.4 530.323C2046.66 531.879 2046.91 533.46 2047.18 535.037ZM2044.27 530.687C2011.25 337.722 1903.41 175.989 1755.31 70.1122C1680.65 16.7625 1595.09 -20.023 1499.8 -47.4878C1388.72 -79.4243 1239.25 -114.576 1039.46 -106.938C990.188 -105.001 940.13 -99.8367 890.444 -91.3354C736.081 -64.9233 585.14 -6.45162 472.076 85.6659C379.57 161.124 332.971 253.826 343.732 316.332C346.154 330.485 351.494 343.108 359.884 353.673C404.098 409.49 501.907 435.031 563.079 508.284C576.091 523.938 587.708 544.262 591.223 564.678C594.665 584.668 590.134 604.859 571.28 620.196C517.009 664.211 412.348 694.405 314.161 749.225C220.074 801.721 160.937 859.228 152.36 905.78C151.216 911.789 151.216 917.559 152.165 923.101C157.083 952.229 188.55 975.475 224.716 989.515C328.437 1029.86 437.906 1046.37 523.929 1047.9C594.234 1049.13 663.587 1041.58 737.315 1028.97C746.481 1027.4 755.72 1025.75 765.056 1024.02C772.16 1022.72 779.794 1021.3 788.001 1019.9C847.214 1009.77 934.73 999.773 1046.92 1025.25C1203.59 1061.05 1355.26 1184.18 1477.48 1184.66C1480.31 1184.68 1483.03 1184.43 1485.68 1183.98C1522.62 1177.83 1540.14 1127.6 1557.04 1090.97C1575.13 1051.96 1589.42 1012.39 1601.64 973.639C1626.07 896.138 1642.24 821.894 1664.06 761.754C1683.12 709.394 1726.49 681.043 1770.44 673.523C1793.81 669.525 1817.34 671.401 1837.56 678.648C1913.47 706.093 1966.37 739.34 2001.34 733.223C2004.9 732.614 2008.27 731.622 2011.48 730.151C2053.07 711.385 2060.86 631.006 2045.07 535.355C2044.78 533.824 2044.53 532.243 2044.27 530.687Z" fill="#16A2FF"/>
<path d="M2090.41 556.601C2105.07 650.493 2095.49 727.975 2051.32 743.979C2048.9 744.853 2046.4 745.5 2043.84 745.917C2006 752.237 1951.87 715.668 1873.1 689.458C1855.54 683.601 1835.57 682.3 1815.53 685.728C1770.54 693.427 1725.31 724.904 1706.14 781.584C1685.35 843.213 1669.26 918.41 1644.53 996.203C1632.16 1035.09 1617.64 1074.63 1599.28 1113.44C1582.77 1148.17 1563.98 1194.4 1526.77 1200.9C1522.55 1201.63 1518.08 1201.82 1513.39 1201.44C1386.53 1190.26 1236.62 1075.32 1083.91 1041.51C958.887 1013.89 864.882 1029.43 806.34 1038.61C719.725 1052.07 640.31 1061.21 559.951 1059.82C473.395 1058.24 364.545 1043.56 266.744 1000.88C235.934 987.376 210.197 964.794 205.428 937.177C204.009 928.886 204.512 920.156 207.338 911.16C222.961 861.932 287.153 806.149 384.241 755.29C482.84 703.646 584.289 675.45 629.878 631.472C643.48 618.263 646.602 602.02 643.735 585.135C639.931 562.904 625.49 539.794 610.73 522.64C548.549 450.547 450.873 425.268 407.3 367.938C399.416 357.506 394.382 345.269 392.059 331.692C381.102 267.267 430.687 173.045 526.153 97.1894C638.293 8.25761 785.503 -47.9083 936.005 -73.6815C988.823 -82.719 1042.04 -88.0075 1094.3 -89.6656C1292.64 -95.7827 1440.89 -60.1815 1551.05 -27.7575C1645.85 0.228393 1730.81 37.4894 1804.85 91.1653C1950.49 196.718 2056.31 356.801 2088.88 547.165C2089.39 550.302 2089.91 553.439 2090.41 556.601ZM2086.73 547.533C2054.25 357.744 1948.76 198.176 1803.57 92.92C1729.79 39.4421 1645.06 2.27244 1550.42 -25.6749C1440.35 -58.0922 1292.42 -93.6169 1094.36 -87.5045C1042.21 -85.8646 989.078 -80.5907 936.366 -71.5715C786.137 -45.8669 639.24 10.2018 527.49 98.8474C432.378 174.335 383.339 268.288 394.208 331.302C396.48 344.581 401.392 356.487 409.047 366.608C451.732 423.103 549.589 448.548 612.391 521.193C627.316 538.538 641.968 561.853 645.906 584.742C648.892 602.067 645.586 619.285 631.414 633.008C585.013 677.63 483.634 705.595 385.27 757.198C288.369 807.872 224.575 863.674 209.421 911.791C206.696 920.484 206.217 928.837 207.577 936.788C212.064 963.268 237.181 985.561 267.606 998.872C365.03 1041.39 473.635 1056.05 559.992 1057.62C640.177 1059.01 719.441 1049.9 806.015 1036.45C864.578 1027.27 958.988 1011.66 1084.37 1039.37C1237.7 1073.43 1387.76 1188.33 1513.57 1199.28C1518.09 1199.67 1522.35 1199.46 1526.4 1198.77C1561.89 1192.83 1580.87 1147.44 1597.32 1112.55C1615.65 1073.85 1630.14 1034.43 1642.47 995.59C1667.16 917.935 1683.23 842.742 1704.07 780.928C1723.48 723.44 1769.45 691.441 1815.15 683.622C1835.51 680.139 1855.83 681.445 1873.77 687.436C1952.68 713.841 2007.27 750.156 2043.44 743.814C2045.89 743.394 2048.26 742.79 2050.56 741.959C2092.62 727.259 2103.08 650.658 2088.25 556.948C2087.77 553.782 2087.26 550.645 2086.73 547.533Z" fill="#16A2FF"/>
<path d="M2072.65 540.288C2086.33 631.87 2073.95 705.553 2029.15 717.738C2027.8 718.099 2026.43 718.4 2025.04 718.637C1985.82 725.195 1930.06 685.636 1848.39 660.69C1832.93 655.965 1815.8 655.1 1798.49 658.061C1752.17 665.986 1704.8 701.34 1685.33 763.184C1665.47 826.387 1649.42 902.454 1624.42 980.338C1601.69 1050.64 1579.14 1165.55 1510.9 1177.51C1503.78 1178.73 1496.18 1178.8 1488.07 1177.58C1358.91 1157.44 1210.13 1050.15 1060.77 1017.85C937.978 991.319 845.173 1005.53 786.432 1013.17C697.525 1024.65 616.78 1033.31 535.393 1031.81C448.626 1030.16 340.676 1017.28 249.701 972.054C224.419 959.443 204.57 938.575 200.318 913.853C198.425 902.79 199.693 890.968 205.002 878.914C227.177 828.873 295.565 774.917 394.812 725.904C492.895 677.529 590.902 650.888 627.708 606.482C637.618 594.519 639.83 580.648 637.382 566.214C633.25 541.932 615.573 516.326 598.912 497.677C535.024 426.249 437.451 400.931 395.428 342.918C388.285 332.974 383.682 321.453 381.512 308.771C370.452 243.749 422.638 148.314 520.76 72.4655C631.507 -12.9371 774.635 -66.8032 920.984 -91.844C976.829 -101.399 1033.13 -106.755 1088.3 -108.077C1284.88 -112.665 1431.57 -76.7294 1540.69 -43.821C1634.86 -15.3987 1718.95 22.2749 1792.13 76.0753C1934.85 181.008 2038.33 338.903 2070.36 526.113C2071.17 530.824 2071.93 535.542 2072.65 540.288ZM2068.23 526.478C2036.29 339.844 1933.14 182.42 1790.85 77.8087C1717.92 24.2062 1634.07 -13.3759 1540.05 -41.7598C1431.05 -74.6438 1284.63 -110.516 1088.34 -105.933C1033.27 -104.629 977.084 -99.2709 921.345 -89.7338C775.273 -64.7405 632.458 -10.9717 522.079 74.1485C424.29 149.633 372.675 244.817 383.639 308.385C385.762 320.79 390.244 331.98 397.182 341.631C438.305 398.744 536.004 424.283 600.505 496.22C617.306 515.043 635.19 540.833 639.489 565.831C642.052 580.684 639.712 595.345 629.346 607.847C591.573 653.142 493.618 679.446 395.734 727.831C296.7 776.675 228.642 830.64 206.947 879.766C201.8 891.485 200.58 902.817 202.403 913.474C206.448 937.244 225.77 957.72 250.62 970.12C341.118 1015.12 448.805 1028 535.394 1029.64C616.607 1031.15 697.242 1022.48 786.131 1011.03C844.85 1003.39 938.04 989.115 1061.2 1015.74C1211.2 1048.23 1360.08 1155.51 1488.43 1175.43C1496.31 1176.63 1503.67 1176.55 1510.55 1175.38C1576.45 1164.41 1599.83 1050.27 1622.37 979.657C1647.33 901.934 1663.38 825.867 1683.28 762.524C1702.98 699.919 1751.02 663.968 1798.14 655.905C1815.73 652.896 1833.21 653.766 1849.02 658.608C1930.9 683.759 1987.17 723.056 2024.68 716.506C2026 716.28 2027.31 715.99 2028.59 715.661C2071.13 704.631 2084.34 632.035 2070.52 540.632C2069.79 535.885 2069.03 531.167 2068.23 526.478Z" fill="#16A2FF"/>
<path d="M2051.05 526.214L2049.98 526.375L2048.91 526.515C2047.96 519.853 2046.92 513.231 2045.79 506.623C2014.47 323.57 1913.45 168.743 1774.3 64.975C1702.23 11.2479 1619.22 -26.6757 1525.89 -55.5496C1417.93 -88.8541 1273.11 -125.043 1078.61 -122.017C1020.65 -121.074 961.306 -115.702 902.498 -105.64C760.647 -81.3686 621.867 -29.9139 513.02 51.7192C412.497 127.255 358.16 223.584 369.227 287.749C371.196 299.259 375.248 309.733 381.488 318.889C420.882 376.671 518.482 402.27 584.619 473.51C603.171 493.592 624.147 520.915 628.782 547.874C630.955 560.578 629.46 573.252 622.233 584.865C593.64 630.477 499.398 656.167 402.651 701.329C302.105 748.26 230.164 800.301 202.168 849.913C193.673 865.013 191.426 879.833 193.753 893.432C197.301 914.172 211.599 932.085 231.144 943.352C314.063 990.989 420.772 1002.26 507.5 1004.07C589.663 1005.74 671.587 997.431 762.728 987.848C821.602 981.636 913.699 968.795 1034.71 994.425C1181.33 1025.57 1329.16 1125.99 1459.2 1153.36C1468.57 1155.31 1477.26 1155.45 1485.32 1154.07C1549.23 1143.42 1576.06 1035.23 1598.43 966.048C1623.7 888.338 1639.74 811.528 1658.75 746.735C1678.65 679.027 1728.25 638.882 1776.46 630.611C1791.55 628.029 1806.52 628.583 1820.38 632.398C1905.15 655.959 1963.19 698.352 2002.11 691.54C2002.28 691.511 2002.43 691.485 2002.6 691.456C2045.66 683.584 2061.45 615.35 2048.87 526.544L2049.94 526.404L2051.05 526.214C2063.53 615.17 2048.44 684.71 2003.05 693.551C2002.88 693.581 2002.71 693.61 2002.51 693.643C1961.86 700.423 1904.35 657.807 1819.84 634.466C1806.3 630.749 1791.66 630.204 1776.85 632.739C1729.53 640.836 1680.54 680.349 1660.83 747.324C1641.86 811.998 1625.79 888.858 1600.47 966.708C1577.94 1035.66 1551.82 1144.6 1485.66 1156.2C1477.31 1157.63 1468.35 1157.48 1458.73 1155.48C1328.04 1127.93 1180.28 1027.52 1034.22 996.55C913.552 971.014 821.839 983.789 762.901 990.012C671.76 999.595 589.751 1007.92 507.389 1006.24C420.568 1004.4 313.56 993.181 230.06 945.227C210.056 933.709 195.301 915.304 191.621 893.797C189.21 879.708 191.583 864.339 200.297 848.851C228.777 798.477 300.999 746.409 401.765 699.353C498.679 654.272 592.944 628.073 620.411 583.707C627.306 572.589 628.758 560.559 626.65 548.239C622.2 522.103 601.488 494.911 583.029 474.989C517.498 404.215 420.003 378.84 379.701 320.116C373.279 310.662 369.112 299.901 367.095 288.114C355.948 222.449 410.86 125.89 511.718 50.0111C620.938 -31.8831 760.009 -83.4315 902.137 -107.75C961.052 -117.831 1020.51 -123.221 1078.59 -124.164C1273.35 -127.191 1418.48 -90.9219 1526.53 -57.5894C1620.02 -28.6771 1703.29 9.33423 1775.59 63.2842C1915.17 167.374 2016.51 322.672 2047.93 506.301C2049.05 512.888 2050.08 519.556 2051.05 526.214Z" fill="#16A2FF"/>
<path d="M2048.44 529.162C2059.07 613.76 2042.71 678.253 1998.58 686.044C1997.69 686.198 1996.81 686.326 1995.91 686.436C1954.02 691.015 1895.4 646.679 1810.4 625.836C1798.63 622.957 1786.16 622.634 1773.52 624.797C1725.47 633.018 1675.38 676.955 1655.57 749.014C1637.38 815.047 1621.27 892.572 1595.65 970.319C1573.27 1037.86 1544.5 1140.43 1479.6 1151.78C1469.96 1153.43 1459.56 1153.04 1448.34 1150.17C1316.66 1116.39 1169.96 1022.31 1027.17 992.534C908.558 967.854 817.841 979.142 758.726 984.079C665.43 991.837 582.176 999.939 499.002 998.001C412.124 995.952 306.075 986.103 230.736 935.326C215.646 925.096 205.11 909.676 202.039 891.729C199.107 874.592 203.012 855.231 216.094 836.034C250.525 785.694 326.219 735.71 427.829 690.637C522.858 648.643 613.003 621.701 630.839 578.106C635.103 567.767 635.804 557.248 634.006 546.739C629.206 518.557 606.198 490.638 585.999 469.523C518.853 399.442 421.472 373.96 383.019 314.502C377.303 305.586 373.566 295.541 371.706 284.67C360.441 218.323 418.221 120.571 521.924 44.7766C629.48 -33.6299 764.405 -82.8674 902.271 -106.457C964.34 -117.077 1026.99 -122.488 1088 -123.032C1280.93 -124.561 1424.46 -88.0182 1531.45 -54.1976C1624.27 -24.8628 1706.69 13.5786 1778.14 67.6319C1913.8 170.284 2013.56 321.75 2044.14 500.434C2045.79 509.979 2047.21 519.544 2048.44 529.162ZM2042.03 500.838C2011.56 322.729 1912.12 171.735 1776.86 69.3866C1705.66 15.5099 1623.5 -22.8226 1530.82 -52.1152C1423.95 -85.8901 1280.7 -122.37 1088.05 -120.846C1027.13 -120.295 964.602 -114.906 902.66 -104.307C765.051 -80.7619 630.42 -31.5969 523.211 46.5309C419.841 121.961 362.686 219.519 373.859 284.302C375.675 294.917 379.318 304.671 384.859 313.332C422.372 371.787 519.84 397.518 587.585 468.023C607.866 489.234 631.163 517.301 636.181 546.367C638.033 557.195 637.323 568.177 632.887 578.918C613.874 624.228 523.626 650.442 428.755 692.585C327.322 737.54 251.87 787.527 217.923 837.235C205.103 856.037 201.405 874.813 204.235 891.353C207.2 908.683 217.364 923.595 232.008 933.529C306.641 983.9 412.328 993.81 499.093 995.836C582.088 997.76 665.282 989.69 758.578 981.932C817.625 976.985 908.691 965.681 1027.65 990.435C1170.98 1020.36 1317.74 1114.49 1448.91 1148.1C1459.87 1150.88 1469.94 1151.26 1479.26 1149.67C1541.99 1139.17 1571.41 1037.39 1593.61 969.66C1619.18 892.051 1635.28 814.572 1653.49 748.447C1673.5 675.718 1724.11 631.079 1773.17 622.662C1786.07 620.455 1798.84 620.749 1810.91 623.729C1896.26 644.798 1955.42 688.975 1995.67 684.283C1996.53 684.18 1997.39 684.055 1998.24 683.909C2040.06 676.996 2057.03 613.869 2046.31 529.417C2045.07 519.844 2043.65 510.301 2042.03 500.838Z" fill="#16A2FF"/>
<path d="M2039.84 536.249C2045.43 606.879 2026.98 656.592 1987.23 663.526C1982.98 664.251 1978.53 664.487 1973.85 664.191C1928.63 661.091 1866.64 614.085 1782.28 601.907C1774.93 600.861 1767.47 601.018 1759.99 602.298C1710.53 610.695 1660.53 669.009 1640.49 755.805C1624.43 825.292 1607.89 904.272 1581.25 981.185C1567.93 1019.64 1552.07 1057.61 1532.48 1093.61C1520.05 1116.49 1500.34 1134.17 1472.76 1138.89C1456.71 1141.63 1438.02 1139.98 1416.63 1132.54C1284.09 1086.35 1141.42 1007.98 1008.13 981.005C895.32 958.184 807.256 964.981 747.63 966.671C648.543 969.431 561.639 977.104 476.843 974.018C390.503 970.757 286.992 962.536 241.024 903.904C237.596 899.511 235.416 894.465 234.471 888.944C230.067 862.559 252.993 825.377 299.234 785.587C345.524 745.833 415.325 703.593 505.25 667.803C547.952 650.799 586.922 633.271 614.315 615.267C641.772 597.252 657.317 578.862 654.092 560.525C654.085 560.482 654.07 560.397 654.059 560.333C646.273 517.392 622.979 481.01 593.565 453.222C521.79 385.447 425.158 358.959 392.96 297.466C389.257 290.311 386.731 282.604 385.331 274.419C373.665 205.596 440.937 104.596 553.594 29.3317C655.532 -38.5702 778.018 -81.2694 902.966 -102.649C974.585 -114.903 1047.01 -120.143 1116.84 -119.125C1304.06 -116.189 1442.71 -78.7897 1546.35 -43.7815C1637.06 -13.076 1716.95 26.4572 1785.81 80.9092C1910.33 179.389 2005.29 320.314 2033.25 483.715C2036.22 500.998 2038.43 518.522 2039.84 536.249ZM2031.14 484.119C2003.29 321.314 1908.65 180.84 1784.48 82.6499C1715.85 28.3783 1636.22 -11.0459 1545.68 -41.6916C1442.13 -76.6718 1303.78 -113.991 1116.82 -116.928C1047.12 -117.967 974.825 -112.728 903.356 -100.499C778.642 -79.1604 656.426 -36.5511 554.803 31.1432C442.461 106.069 375.85 206.955 387.462 274.054C388.826 282.026 391.294 289.524 394.872 296.459C426.115 356.733 522.696 383.559 595.027 451.634C624.705 479.683 648.26 516.438 656.166 559.95C656.173 559.993 656.184 560.057 656.195 560.121C659.544 580.083 643.041 598.9 615.475 617.044C587.844 635.198 548.767 652.744 506.026 669.776C416.286 705.49 346.666 747.635 300.627 787.192C254.538 826.714 232.247 863.766 236.596 888.537C237.485 893.738 239.514 898.415 242.721 902.539C287.6 960.063 390.626 968.652 476.929 971.831C561.548 974.904 648.413 967.259 747.585 964.485C807.126 962.81 895.491 955.983 1008.58 978.867C1142.33 1005.98 1285.05 1084.41 1417.35 1130.49C1438.47 1137.84 1456.77 1139.43 1472.4 1136.75C1499.21 1132.17 1518.35 1115.05 1530.57 1092.6C1550.1 1056.72 1565.89 1018.87 1579.18 980.508C1605.78 903.755 1622.3 824.867 1638.37 755.334C1658.58 668.047 1708.76 608.957 1759.61 600.192C1767.28 598.879 1774.98 598.725 1782.56 599.798C1867.46 612.102 1929.93 659.222 1973.97 662.065C1978.49 662.344 1982.77 662.116 1986.84 661.419C2024.66 655.081 2043.24 606.86 2037.68 536.443C2036.28 518.759 2034.08 501.298 2031.14 484.119Z" fill="#16A2FF"/>
<path d="M1990.85 540.222L1989.83 539.892L1988.79 539.566C1999.43 506.13 2000.54 470.268 1994.25 433.521C1976.79 331.355 1902.11 222.392 1817.6 140.015C1760.17 84.0451 1691.64 39.8483 1611.54 4.32266C1523.66 -34.5896 1407.78 -74.0636 1248.54 -93.5911C1142.97 -106.528 1025.84 -106.933 909.778 -87.0744C842.678 -75.5934 775.945 -57.3523 711.964 -30.8501C563.696 30.6746 450.159 129.389 443.517 216.614C443.077 222.635 443.348 228.446 444.322 234.137C453.494 288.513 525.805 329.671 601.064 380.11C661.859 421.024 735.719 482.65 747.352 550.25C749.85 564.851 749.431 579.709 745.3 594.676C731.183 644.107 665.685 671.747 594.616 695.161C523.515 718.516 446.564 737.562 409.535 768.36C387.339 786.857 379.977 804.483 382.614 819.894C386.595 843.675 415.017 863.098 452.586 871.742C521.716 887.645 619.003 884.491 728.638 896.447C854.04 910.159 1050.24 945.653 1289.78 1048.59C1357.63 1077.76 1414.23 1105.29 1455.25 1098.44C1455.25 1098.44 1455.29 1098.44 1455.37 1098.42C1486.43 1093.24 1501.1 1053.59 1516.65 1020.87C1547.78 955.715 1569.04 880.315 1582.05 805.932C1604.68 677.007 1613.05 565.024 1669.3 533.723C1679.51 528.116 1690.33 524.553 1701.52 522.638C1757.18 513.158 1821.8 543.763 1868.52 560.342C1902.45 572.35 1929.86 577.38 1950.12 573.89C1969.45 570.54 1982.28 559.744 1988.81 539.541L1989.85 539.867L1990.85 540.222C1984.22 561.058 1970.45 572.672 1950.47 576.047C1929.54 579.607 1901.89 574.443 1867.77 562.4C1820.91 545.715 1756.47 515.408 1701.84 524.777C1690.86 526.655 1680.27 530.135 1670.3 535.614C1615.71 565.467 1606.58 677.251 1584.13 806.321C1571.11 880.861 1549.81 956.442 1518.57 1021.83C1503 1054.27 1488.55 1094.83 1455.7 1100.58C1455.66 1100.59 1455.57 1100.6 1455.51 1100.61C1413.31 1107.51 1356.73 1079.69 1288.9 1050.6C1049.59 947.76 853.619 912.315 728.374 898.62C618.895 886.682 521.676 889.846 452.072 873.87C414.155 865.111 384.858 845.573 380.444 820.287C377.632 803.853 385.601 785.421 408.113 766.717C445.908 735.393 522.884 716.496 593.896 693.135C664.941 669.834 729.741 641.963 743.165 594.12C747.197 579.477 747.607 564.949 745.156 550.625C733.874 484.303 660.49 422.64 599.792 381.908C524.7 331.418 451.846 290.55 442.123 234.492C441.123 228.651 440.82 222.648 441.295 216.446C448.327 127.53 562.498 28.9272 711.074 -32.8477C775.218 -59.4217 842.118 -77.7135 909.345 -89.2164C1025.66 -109.118 1142.97 -108.721 1248.74 -95.7535C1408.21 -76.1985 1524.32 -36.6331 1612.34 2.34248C1692.65 37.942 1761.4 82.2765 1819.04 138.473C1903.78 221.077 1978.69 330.262 1996.32 433.167C2002.72 470.181 2001.63 506.391 1990.85 540.222Z" fill="#16A2FF"/>
<path d="M1977.15 536.029C1970.14 549.426 1958.8 556.916 1943.69 559.481C1919.32 563.628 1885.12 555.417 1841.46 539.895C1797.55 524.35 1737.76 502.484 1689.68 510.755C1674.35 513.377 1660.22 519.019 1648.13 528.877C1596.03 571.205 1596.4 688.252 1572.27 820.703C1558.77 894.27 1536.04 967.114 1503.94 1028.4C1489.53 1055.83 1472.46 1085.82 1443.63 1090.82C1440.35 1091.38 1436.94 1091.61 1433.37 1091.48C1386.98 1089.65 1330.85 1061.88 1264.95 1033.86C1034.73 935.801 854.724 901.332 731.08 884.95C622.566 870.565 526.992 871.165 466.168 851.363C441.766 843.383 424.608 829.009 421.468 810.789C417.948 789.957 432.871 765.113 474.701 740.317C520.789 713.103 595.491 689.505 657.085 663.543C718.818 637.623 766.789 609.099 760.451 573.721C760.389 573.359 760.327 572.996 760.243 572.638C742.843 486.455 671.266 425.096 601.599 372.34C532.011 319.527 464.26 275.526 455.098 222.75C453.595 213.968 453.741 204.948 455.809 195.621C476.715 102.906 599.656 10.042 752.619 -45.1997C804.944 -64.0471 858.457 -77.6133 912.043 -86.7821C1039.61 -108.61 1167.49 -105.436 1280.44 -88.7161C1559.66 -47.1985 1716.73 38.6275 1826.78 151.76C1904.12 231.264 1974 336.482 1989.82 428.794C1996.5 467.822 1993.49 504.581 1977.15 536.029ZM1987.69 429.138C1972.04 337.586 1902.35 232.509 1825.24 153.253C1715.51 40.5027 1559.05 -45.0983 1280.12 -86.5993C1167.38 -103.288 1039.7 -106.452 912.404 -84.6719C858.946 -75.525 805.539 -61.9772 753.36 -43.1765C600.713 11.8576 478.334 104.801 457.93 196.092C455.925 205.145 455.792 213.856 457.251 222.382C465.879 273.581 533.17 317.837 602.925 370.599C672.624 423.416 744.724 485.014 762.385 572.205C762.451 572.589 762.538 572.969 762.603 573.353C768.804 611.256 719.552 639.472 657.951 665.523C596.232 691.528 521.534 715.147 475.829 742.164C434.258 766.806 420.263 791.052 423.621 810.42C426.51 827.433 442.839 841.445 466.866 849.29C527.071 868.936 622.748 868.427 731.391 882.791C855.145 899.176 1035.4 933.711 1265.82 1031.87C1331.75 1059.94 1387.85 1087.57 1433.48 1089.31C1436.9 1089.45 1440.17 1089.22 1443.29 1088.69C1470.67 1084.07 1487.69 1054.85 1502.06 1027.38C1534.03 966.361 1556.72 893.7 1570.18 820.292C1594.46 688.058 1593.45 571.01 1646.79 527.197C1659.23 517.083 1673.73 511.289 1689.36 508.616C1738.32 500.26 1798.29 522.359 1842.21 537.859C1885.73 553.36 1919.8 561.397 1943.34 557.345C1957.94 554.826 1968.5 547.819 1975.24 535.017C1991.3 504.121 1994.31 467.867 1987.69 429.138Z" fill="#16A2FF"/>
<path d="M1958.6 521.234C1954.24 525.644 1948.54 528.221 1941.87 529.362C1915.9 533.74 1874.34 517.179 1828.14 501.543C1781.98 485.88 1731.31 471.074 1688 478.506C1662.93 482.795 1640.33 494.45 1622.22 517.712C1576.19 576.947 1584.89 698.711 1557.6 833.305C1543.08 904.524 1518.43 972.76 1485.36 1028C1473.06 1048.56 1455.3 1065.02 1431.32 1069.12C1422.92 1070.56 1413.76 1070.48 1403.86 1068.54C1354.99 1058.84 1299.72 1032.3 1238.03 1006.39C1019.53 914.511 859.762 880.769 739.915 861.06C634.626 843.732 544.312 840.449 497.921 815.632C487.141 809.819 480.255 801.63 478.578 791.825C474.601 767.56 501.542 735.373 573.285 704.998C625.617 682.859 695.603 667.088 747.591 638.579C779.16 621.265 786.006 588.699 780.406 555.717C779.217 548.769 777.456 541.808 775.279 534.984C747.346 448.41 664.523 384.281 587.402 335.784C528.148 298.49 481.717 255.229 473.607 208.087C470.893 192.229 472.565 175.971 479.594 159.477C520.487 63.6926 654.278 -21.0237 812.095 -66.8723C847.062 -77.0238 882.213 -84.9469 917.276 -90.9463C1060.64 -115.477 1202.51 -107.61 1324.06 -85.3632C1585.53 -37.4303 1734.92 48.3042 1838.07 162.509C1906.12 237.854 1967.34 338.324 1981.13 418.785C1988.21 460.268 1982.67 496.604 1958.6 521.234ZM1978.96 419.157C1965.33 339.392 1904.28 239.046 1836.41 163.955C1733.59 50.155 1584.81 -35.3546 1323.61 -83.246C1202.26 -105.461 1060.64 -113.304 917.573 -88.8252C882.596 -82.8403 847.509 -74.9282 812.644 -64.8164C655.172 -19.1364 521.847 65.61 481.535 160.308C474.686 176.442 473.048 192.255 475.692 207.708C483.509 253.65 529.417 296.803 588.511 333.926C665.735 382.516 749.025 446.806 777.288 534.29C779.501 541.195 781.281 548.262 782.488 555.317C788.242 588.689 781.207 622.582 748.587 640.427C696.216 669.133 626.141 684.897 574.079 706.946C502.502 737.14 476.721 769.304 480.68 791.421C482.22 800.416 488.531 808.068 498.904 813.686C544.377 838.134 634.83 841.591 740.222 858.88C860.207 878.63 1020.22 912.417 1238.87 1004.38C1300.59 1030.33 1355.82 1056.81 1404.26 1066.4C1413.93 1068.3 1422.81 1068.39 1430.93 1067C1454.08 1063.04 1471.36 1047.11 1483.48 1026.87C1516.39 971.902 1540.99 903.871 1555.46 832.859C1582.81 698.564 1573.73 576.907 1620.5 516.361C1638.93 492.672 1662.14 480.715 1687.63 476.354C1731.69 468.836 1782.58 483.801 1828.84 499.471C1875.03 515.174 1916.72 531.515 1941.5 527.209C1947.85 526.123 1953.06 523.718 1957.04 519.702C1980.44 495.799 1986 460.295 1978.96 419.157Z" fill="#16A2FF"/>
<path d="M1952.48 525.857L1951.06 524.214C1976.19 502.494 1982.33 467.218 1975.17 425.334C1961.98 348.149 1903.51 249.249 1837.96 175.297C1736.87 61.2436 1589.97 -24.2813 1333.27 -73.5787C1209.93 -97.2072 1064.78 -106.422 917.557 -81.2314C887.332 -76.0598 857.003 -69.4444 826.756 -61.1976C668.299 -17.9378 532.383 64.6188 486.908 159.783C478.353 177.745 476.165 195.473 479.138 212.845C486.746 257.571 528.883 299.966 584.869 335.208C661.965 383.819 747.635 445.991 778.966 533.454C782.853 544.373 786.113 555.86 788.089 567.281C793.121 596.564 789.428 625.629 764.767 642.157C718.952 672.637 650.593 687.273 598.099 708.08C519.434 739.288 489.891 773.062 493.94 795.317C495.187 802.607 499.907 808.907 507.81 813.808C549.074 839.305 637.741 843.857 741.977 861.826C860.685 882.322 1015.85 915.995 1231.62 1006.48C1315.88 1041.84 1391.65 1067.18 1438.28 1059.16C1455.84 1056.15 1469.21 1048.51 1477.63 1034.98C1510.75 981.6 1535.82 914.893 1550.59 844.662C1578.84 710.277 1568.51 587.673 1613.24 523.154C1630.75 498.065 1654.07 485.518 1680.25 481.06C1723.8 473.631 1775.19 488.269 1822.14 503.557C1869.04 518.876 1911.67 534.815 1936.77 530.454C1942.52 529.47 1947.32 527.465 1951.1 524.207L1951.81 525.028L1952.48 525.857C1948.33 529.42 1943.13 531.582 1937.09 532.614C1910.82 537.044 1868.35 520.902 1821.42 505.632C1774.53 490.334 1723.35 475.879 1680.57 483.199C1654.87 487.619 1632.19 499.793 1614.98 524.391C1570.87 587.642 1580.91 710.407 1552.68 845.094C1537.86 915.531 1512.74 982.466 1479.44 1036.12C1470.67 1050.26 1456.61 1058.21 1438.64 1061.29C1390.93 1069.41 1315.17 1043.83 1230.77 1008.49C1015.18 918.085 860.24 884.46 741.62 863.972C637.466 845.966 548.971 841.648 506.681 815.669C498.389 810.549 493.184 803.717 491.834 795.699C487.845 771.108 518.541 737.533 597.319 706.085C650.065 685.213 718.306 670.531 763.582 640.363C787.223 624.536 790.9 596.659 785.957 567.646C784.032 556.391 780.786 544.99 776.939 534.174C745.978 447.591 660.771 385.559 583.732 337.026C527.543 301.621 484.911 259.026 477.027 213.206C473.986 195.429 476.239 177.185 484.97 158.842C531.045 62.6978 667.419 -19.8717 826.203 -63.275C856.514 -71.5327 886.903 -78.1804 917.213 -83.3665C1064.76 -108.612 1210.13 -99.3696 1333.7 -75.7136C1590.69 -26.3784 1738.16 59.3787 1839.6 173.853C1905.35 248.078 1963.99 347.06 1977.32 424.945C1984.54 467.191 1978.44 503.426 1952.48 525.857Z" fill="#16A2FF"/>
<path d="M1936.72 518.09C1933.67 519.621 1930.2 520.674 1926.37 521.331C1899.69 525.85 1855.07 511.481 1806.35 497.922C1757.67 484.335 1705.01 471.515 1663.11 478.706C1635.06 483.527 1611.88 497.147 1597.45 525.526C1559.76 600.14 1572.05 725.458 1540.84 859.493C1525.01 927.23 1498.52 989.9 1464.69 1038.62C1457.35 1049.2 1446.22 1055.17 1432.36 1057.54C1383.22 1065.86 1298.8 1030.11 1213.64 994.634C1006.83 908.412 865.436 875.212 751.45 852.439C651.585 832.449 569.01 825.034 540.54 795.966C537.555 792.879 535.684 789.381 535.031 785.566C532.972 773.018 543.466 758.059 566.01 741.85C588.618 725.63 623.565 708.176 671.269 691.173C721.837 673.218 783.651 657.639 802.936 622.769C810.034 610.015 810.909 595.254 808.232 579.608C804.37 557.036 793.07 532.796 782.712 510.852C741.957 424.606 650.691 368.833 575.022 319.846C529.072 290.039 497.168 251.291 490.097 210.092C485.906 185.601 490.55 160.301 506.218 135.703C567.861 39.3738 711.727 -36.3382 872.9 -72.1866C888.606 -75.6636 904.296 -78.7212 919.916 -81.4158C1080.67 -108.922 1236.53 -95.2208 1365.73 -67.0883C1609.11 -13.8442 1751 71.8801 1847.27 187.152C1905.96 257.45 1955.58 349.947 1967.69 420.603C1967.69 420.645 1967.7 420.688 1967.71 420.731C1975.4 465.837 1967.76 502.445 1936.72 518.09ZM1965.54 420.992C1953.58 350.948 1904.09 258.582 1845.6 188.556C1749.69 73.7058 1608.37 -11.7649 1365.27 -64.9461C1236.26 -93.0476 1080.68 -106.707 920.285 -79.2629C904.682 -76.5932 889.035 -73.543 873.35 -70.0696C712.528 -34.3473 569.075 41.3381 508.04 136.861C492.63 161.042 488.125 185.748 492.225 209.706C499.1 250.017 530.547 288.404 576.198 317.999C651.803 366.997 743.5 422.851 784.677 509.902C795.039 531.867 806.425 556.224 810.381 579.219C813.106 595.141 812.24 610.471 804.821 623.785C784.553 659.964 722.408 675.139 672.006 693.174C624.448 710.131 589.626 727.542 567.269 743.565C544.87 759.596 535.224 774.256 537.176 785.155C537.749 788.501 539.373 791.58 542.094 794.405C569.159 822.442 651.961 830.411 751.888 850.258C865.943 873.042 1007.54 906.272 1214.47 992.562C1299.53 1028.09 1384.15 1063.59 1431.99 1055.34C1445.46 1053.04 1455.94 1047.34 1462.91 1037.33C1496.55 988.899 1522.96 926.439 1538.75 858.951C1569.94 725.293 1557.46 600.16 1595.54 524.492C1610.23 495.476 1634.24 481.387 1662.76 476.528C1705.37 469.259 1758.2 482.224 1806.95 495.801C1855.66 509.406 1900.41 523.601 1926.04 519.149C1929.68 518.526 1932.96 517.527 1935.79 516.121C1965.55 501.178 1973.19 465.864 1965.54 420.992Z" fill="#16A2FF"/>
<path d="M1929.03 438.559C1922.19 455.788 1909.06 467.492 1889.3 470.851C1878.3 472.733 1865.26 472.068 1850.06 468.503C1796.16 455.831 1723.08 417.854 1643.73 420.965C1640.46 421.108 1637.25 421.438 1634.06 421.985C1583.59 430.554 1541.35 490.128 1534.57 567.044C1524.75 677.629 1526.67 808.585 1478.73 918.211C1459.7 961.506 1433.84 1006.78 1394.44 1013.63C1390.24 1014.35 1385.9 1014.63 1381.41 1014.41C1311.2 1010.92 1230.07 966.307 1158.68 935.391C1001.43 867.235 881.433 836.89 813.124 807.837C780.965 794.143 764.418 779.621 761.757 764.455C759.663 752.089 767.069 739.984 782.151 728.628C815.366 703.748 893.374 666.136 883.625 610.696C883.453 609.695 883.261 608.696 883.022 607.684C866.447 534.15 824.079 452.327 750.5 390.807C665.389 319.588 568.603 284.635 536.316 223.904C533.004 217.625 530.782 210.919 529.585 203.928C519.833 146.164 579.19 68.0184 672.043 14.3301C753.828 -32.7478 841.918 -61.4443 930.865 -76.6635C1149.2 -114.02 1372.78 -70.2472 1522.16 -17.8561C1698.58 44.145 1815.36 134.254 1885.37 253.273C1909.76 294.777 1926.06 336.831 1932.22 372.833C1936.68 398.616 1935.91 421.323 1929.03 438.559ZM1888.93 468.72C1908.03 465.431 1920.34 454.417 1927.03 437.761C1933.68 421.112 1934.53 398.743 1930.14 373.211C1924.03 337.551 1907.83 295.699 1883.56 254.372C1813.84 135.875 1697.58 46.094 1521.48 -15.809C1372.38 -68.1159 1149.07 -111.805 931.276 -74.518C842.542 -59.3353 754.701 -30.7251 673.174 16.1987C580.637 69.5479 522.051 147.583 531.76 203.556C532.919 210.334 535.08 216.809 538.271 222.889C569.678 282.455 666.433 317.742 751.926 389.137C825.919 451.025 868.487 533.253 885.177 607.206C885.424 608.261 885.624 609.301 885.802 610.346C895.448 668.26 816.103 705.618 783.502 730.371C768.701 741.569 762.027 752.957 763.96 764.122C766.248 777.881 782.056 792.311 814.015 805.864C882.017 834.794 1002.2 865.194 1159.57 933.417C1231.06 964.405 1312.12 1008.85 1381.55 1012.26C1385.89 1012.48 1390.05 1012.21 1394.1 1011.52C1431.95 1005.13 1457.86 960.614 1476.77 917.384C1524.47 808.345 1522.62 677.642 1532.43 566.882C1539.31 489.358 1581.76 428.827 1633.69 419.875C1636.98 419.313 1640.3 418.965 1643.65 418.808C1723.72 415.725 1797.1 453.893 1850.56 466.4C1865.55 469.912 1878.32 470.536 1888.93 468.72Z" fill="#16A2FF"/>
<path d="M1927.19 433.697C1920.1 450.596 1906.7 462.038 1886.57 465.459C1873.3 467.731 1857.15 466.567 1837.85 461.378C1781.44 446.217 1706 408.314 1628.77 416.33C1627.28 416.497 1625.82 416.702 1624.37 416.95C1572.84 425.658 1534.46 493.062 1528.79 576.237C1521.04 689.278 1519.96 819.386 1470.04 923.603C1451.41 962.288 1425.81 1000.39 1388.5 1006.84C1382.51 1007.86 1376.24 1008.06 1369.69 1007.29C1299.8 999.176 1221.77 957.811 1154.32 928.26C1005.19 862.774 891.881 831.921 830.417 802.355C805.066 790.107 791.958 777.607 789.657 764.42C787.319 750.494 797.221 736.821 816.332 723.24C849.67 699.721 899.3 657.048 889.221 598.528C888.718 595.586 888.055 592.607 887.249 589.563C867.146 515.031 816.205 435.026 738.365 374.893C650.624 307.152 556.554 270.637 535.376 208.795C534.256 205.454 533.388 202.049 532.794 198.574C522.191 135.58 596.586 53.2605 703.048 -1.02332C778.689 -39.393 857.615 -63.5598 936.545 -77.0649C1164.72 -116.107 1392.92 -65.9258 1541.94 -10.9949C1710.21 51.173 1824.05 142.507 1890.41 261.954C1911.37 299.701 1925.36 336.973 1930.89 369.134C1935.24 394.563 1934.31 416.815 1927.19 433.697ZM1886.21 463.328C1924.98 456.694 1937.29 419.923 1928.76 369.52C1923.31 337.654 1909.4 300.588 1888.53 263.022C1822.49 144.114 1709.13 53.0904 1541.21 -8.96176C1392.45 -63.8049 1164.55 -113.884 936.931 -74.937C858.193 -61.4647 779.455 -37.3521 704.038 0.913579C597.848 54.8656 524.321 137.256 534.925 198.21C535.502 201.577 536.33 204.88 537.432 208.114C557.775 268.41 651.616 305.38 739.698 373.195C817.912 433.593 869.115 513.971 889.347 589.007C890.185 592.11 890.839 595.158 891.356 598.185C901.577 658.304 850.975 701.45 817.584 725.044C798.647 738.486 789.613 751.593 791.793 764.077C793.792 776.02 806.206 788.31 831.362 800.439C892.469 829.846 1005.94 860.78 1155.2 926.312C1222.73 955.937 1300.69 997.16 1369.94 1005.19C1376.3 1005.92 1382.36 1005.72 1388.14 1004.73C1424.11 998.64 1449.59 961.261 1468.09 922.708C1517.74 819.129 1518.88 689.251 1526.62 576.126C1532.39 492.495 1570.77 424.06 1623.99 414.843C1625.48 414.588 1627 414.372 1628.54 414.219C1706.6 406.15 1782.34 444.308 1838.42 459.328C1857.48 464.426 1873.36 465.527 1886.21 463.328Z" fill="#16A2FF"/>
<path d="M1916.05 419.741C1908.91 434.807 1895.63 444.932 1875.96 448.277C1859.16 451.151 1837.7 449.185 1811.08 441.475C1754.52 425.045 1680.36 392.079 1610.73 404.015C1608.36 404.42 1606.03 404.885 1603.68 405.375C1552.09 416.462 1521.47 491.49 1517.46 579.361C1512.28 692.049 1509.06 817.63 1460.15 914.391C1441.56 951.008 1416.54 986.485 1381.4 992.563C1376.86 993.34 1372.15 993.62 1367.3 993.332C1305.69 989.744 1235.9 953.046 1175.46 925.609C1038.79 863.518 936.803 830.071 885.174 799.261C866.522 788.082 857.061 777.283 855.111 766.011C852.574 750.803 863.658 735.831 882.446 719.08C906.55 697.623 920.192 653.495 911.254 601.252C909.408 590.467 906.605 579.341 902.73 567.981C877.145 493.071 818.043 416.151 737.495 356.986C649.84 292.565 561.478 252.353 550.427 191.104C550.413 191.018 550.398 190.933 550.383 190.848C539.01 123.225 624.476 40.8539 740.059 -11.4145C806.613 -41.3407 874.84 -60.9785 942.792 -72.6053C1176.7 -112.628 1407.42 -57.6122 1556.09 0.800644C1720.86 65.6286 1828.81 158.257 1888.66 274.056C1905.07 305.825 1916.02 335.851 1920.46 361.813C1924.38 384.837 1923.22 404.693 1916.05 419.741ZM886.304 797.4C937.498 827.977 1039.64 861.51 1176.37 923.632C1236.89 951.122 1306.57 987.664 1367.45 991.155C1372.15 991.427 1376.69 991.155 1381.06 990.407C1414.89 984.683 1439.77 949.888 1458.25 913.401C1506.86 817.306 1510.16 691.973 1515.31 579.246C1519.42 491.093 1549.74 415.064 1603.23 403.258C1605.6 402.743 1607.98 402.292 1610.37 401.883C1680.92 389.833 1755.33 423.086 1811.69 439.396C1838.12 447.05 1859.29 448.935 1875.61 446.142C1913.73 439.553 1926 407.792 1918.33 362.177C1913.94 336.514 1903.06 306.673 1886.75 275.042C1827.19 159.807 1719.74 67.5105 1555.31 2.81961C1406.92 -55.5091 1176.54 -110.406 943.178 -70.4775C875.375 -58.8762 807.336 -39.2925 740.967 -9.44173C625.621 42.5447 541.141 125.033 552.536 190.48C552.551 190.565 552.562 190.629 552.576 190.714C562.919 250.132 650.835 290.815 738.8 355.249C819.651 414.648 879.02 491.851 904.804 567.275C908.718 578.738 911.539 589.971 913.406 600.884C922.415 653.663 908.783 698.492 883.928 720.691C865.208 737.321 854.89 751.898 857.285 765.639C857.288 765.661 857.288 765.661 857.292 765.682C859.025 775.938 867.872 786.359 886.304 797.4Z" fill="#16A2FF"/>
<path d="M1886.48 411.461C1879.8 423.399 1867.72 431.322 1849.99 434.335C1830.78 437.621 1804.89 435.294 1771.36 426.398C1720.08 412.662 1654.27 389.063 1594.91 399.241C1588 400.423 1581.2 402.069 1574.5 404.203C1526.18 419.688 1501.82 493.843 1499.52 578.152C1496.54 684.804 1495.63 802.113 1453.9 894.684C1435.76 934.8 1410.65 967.288 1379.23 982.91C1374.35 985.324 1369.14 986.939 1363.62 987.883C1325.86 994.278 1274.69 969.578 1230.09 949.499C1030.86 859.325 956.974 820.893 948.9 775.369C946.868 763.497 949.457 751.316 955.446 737.852C963.013 720.915 963.304 696.842 958.534 669.093C953.651 640.553 943.475 608.135 930.767 575.536C902.167 502.37 843.465 427.4 765.235 367.421C681.212 302.949 596.854 262.031 582.872 202.752C582.593 201.506 582.338 200.277 582.123 199.019C571.819 137.642 645.961 62.6927 748.868 14.8092C811.931 -14.366 877.561 -33.5374 943.573 -44.8324C1164.25 -82.5905 1389.14 -32.2388 1537.32 27.2676C1712.14 97.6161 1814.25 192.759 1865.5 294.079C1878.9 320.614 1887.77 344.612 1891.26 365.031C1894.49 383.742 1893.17 399.522 1886.48 411.461ZM1231.01 947.522C1275.57 967.672 1326.71 992.07 1363.26 985.752C1368.59 984.84 1373.61 983.279 1378.26 980.969C1408.99 965.685 1433.92 933.645 1451.93 893.793C1493.42 801.856 1494.38 684.778 1497.37 578.104C1499.79 493.531 1523.79 418.518 1573.84 402.165C1580.64 399.971 1587.56 398.327 1594.55 397.131C1654.72 386.856 1720.76 410.682 1771.9 424.33C1805.23 433.174 1830.89 435.431 1849.6 432.229C1884.07 426.221 1895.3 402.361 1889.14 365.418C1885.7 345.317 1876.91 321.504 1863.56 295.069C1812.58 194.316 1710.97 99.4839 1536.5 29.2727C1388.63 -30.1107 1164.04 -80.3605 943.917 -42.6973C878.075 -31.4315 812.654 -12.3179 749.776 16.7819C647.124 64.3586 573.92 139.41 584.237 198.679C584.445 199.894 584.692 201.081 584.964 202.285C598.22 259.888 682.214 301.242 766.521 365.709C845.026 425.883 903.971 501.118 932.761 574.755C945.527 607.432 955.725 639.978 960.648 668.754C965.429 696.698 965.243 721.126 957.398 738.747C951.504 751.997 949.102 763.729 951.035 775.026C951.049 775.111 951.064 775.196 951.082 775.303C958.525 818.544 1032.13 857.77 1231.01 947.522Z" fill="#16A2FF"/>
<path d="M1877.73 385.535C1871.25 396.428 1859.71 403.602 1842.81 406.473C1822.83 409.89 1795.32 407.446 1759.14 398.302C1710.01 385.843 1647.58 365.503 1591.85 375.062C1583.36 376.513 1575.02 378.664 1566.9 381.611C1519.96 398.725 1497.85 472.209 1496.15 554.969C1493.91 659.101 1493.92 773.096 1454.96 863.899C1434.45 911.637 1398.01 941.675 1352.67 949.411C1322.66 954.546 1288.81 949.939 1253.11 934.393C1054.29 847.549 992.073 804.203 983.416 754.633C981.614 744.103 982.279 733.371 984.569 722.009C987.333 708.285 986.704 691.917 983.6 673.777C977.63 638.885 962.541 597.501 945.343 555.71C915.501 483.239 856.874 409.09 779.561 348.955C697.035 284.643 614.503 243.368 599.653 184.919C599.252 183.342 598.939 181.772 598.666 180.173C588.705 120.931 658.767 48.6764 757.055 2.52642C818.705 -26.3191 883.234 -45.2583 948.373 -56.4038C1163.42 -93.199 1385.16 -44.8743 1532.68 14.5248C1710.61 86.3601 1810.84 182.328 1858.84 277.843C1871.22 302.491 1879.38 324.437 1882.56 343.002C1885.53 360.243 1884.18 374.647 1877.73 385.535ZM1254 932.42C1289.39 947.821 1322.81 952.348 1352.33 947.297C1396.92 939.667 1432.7 910.247 1453.01 863.068C1491.73 772.878 1491.79 659.114 1494.02 554.939C1495.83 471.94 1517.56 397.623 1566.18 379.584C1574.42 376.573 1582.89 374.4 1591.5 372.926C1647.99 363.283 1710.65 383.803 1759.67 396.191C1795.68 405.322 1822.98 407.671 1842.44 404.341C1875.31 398.586 1886.08 377.326 1880.45 343.363C1877.33 325.118 1869.26 303.331 1856.94 278.804C1809.24 183.875 1709.5 88.1957 1531.9 16.5225C1384.68 -42.7535 1163.23 -90.9727 948.759 -54.2759C883.791 -43.1596 819.453 -24.2533 758.006 4.49191C659.997 50.3527 590.867 122.667 600.844 179.823C601.106 181.357 601.433 182.881 601.802 184.398C615.941 241.258 698.144 282.917 780.936 347.249C858.503 407.583 917.352 482.001 947.398 554.897C964.607 596.752 979.757 638.236 985.778 673.427C988.911 691.736 989.58 708.339 986.729 722.451C984.477 733.653 983.829 744.097 985.572 754.285C985.583 754.349 985.598 754.435 985.609 754.499C993.764 802.159 1055.41 845.845 1254 932.42Z" fill="#16A2FF"/>
<path d="M1871.75 380.591C1865.41 391 1854.11 397.803 1837.64 400.622C1817.34 404.094 1789.06 401.607 1751.59 392.397C1703.6 380.534 1642.86 361.791 1588.88 371.05C1579.61 372.636 1570.54 375.043 1561.76 378.455C1515.5 396.352 1494.46 469.454 1493.06 551.417C1491.2 654.278 1491.6 766.604 1454.04 856.508C1433.17 906.327 1396.16 938.768 1350.13 946.62C1323.45 951.186 1293.77 947.489 1262.53 934.274C1062.73 849.44 1006.61 802.374 997.6 750.341C996.006 741.026 995.951 731.602 996.844 721.818C997.903 710.184 997.015 697.173 994.612 683.126C988.127 645.228 970.625 599.869 951.154 553.772C920.671 481.653 862.031 407.945 785.229 347.722C703.451 283.545 621.856 242.11 606.657 184.049C606.212 182.348 605.849 180.612 605.55 178.864C595.76 120.623 663.88 49.7102 759.915 4.36276C820.85 -24.2949 884.825 -43.1391 949.516 -54.208C1161.66 -90.5073 1381.66 -43.2238 1528.77 16.049C1708.07 88.4401 1807.33 184.75 1853.83 277.428C1865.7 301.174 1873.53 322.169 1876.56 339.882C1879.44 356.437 1878.08 370.183 1871.75 380.591ZM1263.39 932.283C1294.33 945.375 1323.55 948.975 1349.79 944.485C1395 936.75 1431.4 904.963 1452.08 855.66C1489.4 766.343 1489.09 654.244 1490.93 551.365C1492.44 469.164 1513.1 395.271 1561.01 376.432C1569.92 372.977 1579.13 370.523 1588.53 368.915C1643.25 359.574 1704.21 378.477 1752.13 390.286C1789.43 399.458 1817.49 401.875 1837.29 398.487C1869.37 392.867 1879.89 372.813 1874.49 340.236C1871.52 322.843 1863.76 302.011 1851.96 278.385C1805.75 186.293 1706.96 90.2971 1528.02 18.0431C1381.24 -41.089 1161.52 -88.2882 949.927 -52.0625C885.385 -41.0192 821.62 -22.2326 760.886 6.32461C665.135 51.4043 597.94 122.334 607.728 178.513C608.016 180.197 608.368 181.87 608.802 183.507C623.294 239.999 704.564 281.841 786.605 346.016C863.66 406.437 922.517 480.393 953.18 552.921C972.663 599.082 990.222 644.519 996.765 682.758C999.19 696.932 1000.11 710.114 999.024 721.993C998.131 731.646 998.196 740.871 999.749 749.951C999.76 750.015 999.767 750.058 999.778 750.122C1008.4 800.51 1063.8 847.611 1263.39 932.283Z" fill="#16A2FF"/>
<path d="M1854.52 379.94C1848.3 389.868 1837.26 396.365 1821.21 399.111C1800.62 402.634 1771.6 400.118 1732.88 390.881C1686 379.661 1627 362.442 1574.72 371.388C1564.68 373.106 1554.91 375.786 1545.5 379.634C1499.95 398.31 1479.96 470.971 1478.81 552.1C1477.3 653.673 1478.11 764.348 1441.92 853.34C1420.79 905.133 1383.31 939.957 1336.86 947.904C1313.27 951.941 1287.41 949.038 1260.26 937.974C1058.05 855.244 1008.65 803.364 999.166 748.34C997.886 740.858 997.345 733.338 997.266 725.695C997.175 716.825 996.199 707.404 994.51 697.536C987.439 656.206 967.673 606.846 945.7 556.131C914.575 484.363 855.965 411.089 779.643 350.849C698.62 286.851 618.016 245.181 602.494 187.548C602.003 185.701 601.597 183.84 601.276 181.964C591.654 124.704 657.884 55.0582 751.736 10.5449C811.958 -17.9248 875.34 -36.6457 939.583 -47.638C1148.83 -83.4413 1367 -37.2272 1513.61 21.8239C1694.17 94.6361 1792.51 191.235 1837.53 281.138C1848.95 304.02 1856.46 324.102 1859.36 341.005C1862.11 356.835 1860.74 369.991 1854.52 379.94ZM1261.1 935.944C1287.91 946.867 1313.34 949.712 1336.51 945.748C1382.09 937.95 1418.98 903.797 1439.93 852.495C1475.92 764.108 1475.17 653.665 1476.65 552.053C1477.91 470.685 1497.53 397.254 1544.68 377.626C1554.23 373.709 1564.18 370.975 1574.35 369.236C1627.34 360.19 1686.57 377.568 1733.37 388.757C1771.93 397.955 1800.74 400.397 1820.82 396.941C1852.1 391.434 1862.4 372.515 1857.24 341.302C1854.4 324.719 1846.97 304.796 1835.6 282.039C1790.85 192.725 1693.01 96.4579 1512.81 23.7827C1366.5 -35.1452 1148.64 -81.2575 939.941 -45.5491C875.868 -34.586 812.674 -15.9193 752.654 12.45C659.082 56.6741 593.773 126.316 603.396 181.536C603.706 183.348 604.102 185.145 604.561 186.931C619.404 243.034 699.675 285.069 780.965 349.087C857.523 409.55 916.368 483.047 947.669 555.202C969.649 605.96 989.494 655.393 996.631 697.107C998.338 707.082 999.31 716.613 999.424 725.611C999.51 733.165 1000.03 740.579 1001.29 747.911C1001.29 747.954 1001.3 747.975 1001.31 748.017C1010.51 801.685 1059.03 853.278 1261.1 935.944Z" fill="#16A2FF"/>
<path d="M1840.08 355.668C1834.32 363.958 1824.32 369.313 1809.84 371.789C1788.36 375.465 1756.83 372.917 1713.53 364.092C1671.38 355.485 1619.36 343.676 1573.56 351.534C1560.58 353.755 1548.11 357.535 1536.47 363.408C1493.79 384.906 1477.58 455.516 1477.42 533.186C1477.18 623.594 1464.44 718.158 1440.38 792.173C1416.31 866.124 1381.02 919.77 1334.97 927.737C1324.18 929.582 1312.85 928.888 1301.01 925.341C1098.46 864.082 1070.74 781.879 1047.62 716.071C1029.15 663.527 1008.2 604.805 978.757 543.279C945.096 472.976 886.516 401.539 812.174 341.334C734.322 278.175 657.733 235.862 641.376 179.886C640.73 177.649 640.208 175.369 639.818 173.088C630.773 119.327 690.117 54.6988 775.777 13.2107C833.041 -14.3362 893.997 -32.4884 956.216 -43.1342C1153.61 -76.9097 1363.58 -35.0615 1507.69 22.4858C1691.85 96.1963 1786.8 192.76 1826.41 272.291C1836.13 291.909 1842.47 308.705 1844.87 322.751C1847.19 336.329 1845.84 347.377 1840.08 355.668ZM980.705 542.353C1010.21 604 1031.18 662.829 1049.64 715.351C1072.91 781.049 1099.51 861.905 1301.62 923.263C1313.16 926.707 1324.16 927.371 1334.6 925.584C1379.12 918.054 1414.38 865.247 1438.33 791.492C1462.29 717.78 1475.03 623.368 1475.27 533.181C1475.52 455.298 1491.36 384.006 1535.51 361.489C1547.36 355.512 1560.04 351.653 1573.22 349.399C1619.64 341.477 1671.86 353.386 1714 361.971C1757.17 370.776 1788.53 373.243 1809.5 369.654C1837.73 364.647 1847.12 349.615 1842.76 323.134C1840.42 309.428 1834.17 292.771 1824.49 273.277C1785.19 194.352 1690.7 98.0605 1506.9 24.5086C1363.11 -32.9406 1153.45 -74.687 956.58 -41.0027C894.532 -30.3861 833.764 -12.2879 776.723 15.1549C691.365 56.3501 632.955 120.929 641.971 172.72C642.35 174.937 642.853 177.11 643.467 179.287C659.16 233.819 735.452 276.446 813.554 339.65C888.081 400.043 946.854 471.71 980.705 542.353Z" fill="#16A2FF"/>
<path d="M1813.12 309.272C1807.78 316.285 1798.67 320.739 1785.58 322.979C1763.65 326.732 1730.29 324.323 1683.45 316.65C1646.29 310.546 1601.47 303.32 1561.71 310.122C1545.83 312.839 1530.77 317.785 1517.31 325.924C1477.57 349.837 1464.56 417.924 1465.21 491.878C1465.98 582.004 1455.93 674.595 1434.63 746.625C1413.29 818.616 1380.76 870.32 1335.84 878.093C1330.62 878.986 1325.25 879.269 1319.71 878.923C1153.68 867.445 1115.6 756.412 1075.56 677.811C1022.63 573.792 968.275 421.753 832.695 309.324C758.126 247.403 685.918 204.537 669.359 150.329C668.634 147.886 668.058 145.418 667.631 142.924C659.082 92.1934 712.359 31.9815 790.74 -6.52796C844.994 -33.077 903.4 -50.6176 963.402 -60.8841C1148.67 -92.5844 1349.17 -55.0609 1489.83 0.158436C1675.51 73.1904 1767.37 168.441 1802.21 238.697C1810.46 255.406 1815.81 269.497 1817.82 281.198C1819.79 292.861 1818.46 302.239 1813.12 309.272ZM1077.48 676.846C1117.79 755.774 1155.02 865.264 1319.85 876.793C1325.21 877.125 1330.41 876.851 1335.46 875.986C1378.83 868.653 1411.33 817.831 1432.53 746.04C1453.76 674.309 1463.81 581.872 1463.03 491.923C1462.47 417.755 1475.11 349.072 1516.17 324.102C1529.91 315.805 1545.24 310.769 1561.33 308.015C1601.59 301.126 1646.62 308.451 1683.79 314.53C1730.54 322.196 1763.78 324.537 1785.22 320.869C1810.79 316.297 1819.37 304.233 1815.67 281.609C1813.73 270.27 1808.47 256.317 1800.25 239.711C1765.75 170.101 1674.33 75.1045 1489 2.23107C1348.66 -52.8689 1148.47 -90.2904 963.735 -58.6812C903.904 -48.4439 845.682 -30.979 791.652 -4.53399C713.597 33.7003 661.237 93.7555 669.727 142.609C670.139 145.018 670.701 147.401 671.411 149.758C687.346 202.625 759.296 245.776 834.064 307.708C970.154 420.554 1024.64 573.054 1077.48 676.846Z" fill="#16A2FF"/>
<path d="M1805.33 330.658C1800.08 337.414 1791.18 341.679 1778.39 343.868C1756.39 347.631 1722.69 345.303 1675.17 337.988C1639.3 332.498 1596.31 326.252 1558.05 332.798C1541.42 335.643 1525.71 340.898 1511.85 349.632C1472.92 374.174 1460.54 441.472 1461.38 514.473C1462.36 604.584 1452.86 696.248 1431.93 767.402C1410.99 838.492 1378.68 889.345 1333.34 897.17C1329.5 897.826 1325.57 898.17 1321.55 898.177C1167.39 898.316 1123.44 783.284 1081.04 700.742C1027.94 597.236 971.639 446.671 836.841 334.196C763.109 272.679 691.999 229.692 675.534 175.906C674.78 173.424 674.179 170.938 673.745 168.402C665.317 118.375 717.269 59.2672 793.925 21.4478C847.413 -4.83842 905.148 -22.1983 964.574 -32.3663C1146.8 -63.5451 1344.76 -27.0808 1484.43 27.4319C1670.18 100.08 1761.28 194.8 1795.03 262.895C1802.97 278.934 1808.09 292.428 1810.02 303.594C1810.02 303.615 1810.03 303.636 1810.03 303.658C1811.91 314.898 1810.56 323.927 1805.33 330.658ZM1082.95 699.756C1125.59 782.61 1168.76 896.106 1321.53 896.008C1325.44 895.999 1329.24 895.655 1332.97 895.017C1376.78 887.586 1409.02 837.665 1429.85 766.771C1450.7 695.938 1460.19 604.43 1459.21 514.472C1458.44 441.282 1470.45 373.367 1510.67 347.771C1524.83 338.832 1540.83 333.505 1557.67 330.624C1596.42 323.994 1639.63 330.313 1675.5 335.804C1722.93 343.111 1756.51 345.395 1778.01 341.694C1803.01 337.22 1811.4 325.758 1807.86 303.941C1806.01 293.113 1800.97 279.782 1793.08 263.821C1759.67 196.372 1668.99 101.883 1483.63 29.4119C1344.29 -24.9813 1146.6 -61.3613 964.935 -30.2561C905.701 -20.1209 848.154 -2.81517 794.89 23.367C718.564 60.9327 667.524 119.862 675.895 168.012C676.314 170.463 676.879 172.868 677.597 175.268C693.462 227.73 764.285 270.964 838.22 332.512C973.514 445.45 1029.91 596.46 1082.95 699.756Z" fill="#16A2FF"/>
<path d="M1789.2 319.728C1784.06 326.224 1775.32 330.307 1762.83 332.445C1740.79 336.194 1706.81 333.955 1658.67 327.078C1624.17 322.143 1583.03 316.852 1546.26 323.144C1528.86 326.12 1512.46 331.669 1498.18 341.045C1459.99 366.074 1448.31 432.684 1449.31 504.713C1450.51 593.91 1441.74 684.703 1421.59 755.195C1401.44 825.624 1369.96 876.029 1325.06 883.799C1321.73 884.368 1318.33 884.71 1314.85 884.778C1172.49 887.767 1122.78 777.232 1078.21 691.266C1024.91 588.255 966.729 439.13 832.688 326.723C759.811 265.587 689.892 222.505 673.465 169.196C672.711 166.714 672.106 164.207 671.672 161.67C663.353 112.283 713.948 54.219 788.986 17.0714C841.714 -8.90939 898.782 -26.0672 957.565 -36.1471C1136.74 -66.8044 1332.1 -31.4525 1470.72 22.3182C1656.4 94.4507 1746.78 188.617 1779.46 254.612C1787.07 270.004 1791.98 282.899 1793.81 293.599C1793.81 293.62 1793.82 293.642 1793.82 293.642C1795.7 304.552 1794.34 313.253 1789.2 319.728ZM1080.13 690.28C1124.87 776.48 1173.9 885.596 1314.81 882.635C1318.18 882.563 1321.46 882.243 1324.7 881.689C1368.07 874.356 1399.46 824.865 1419.52 754.629C1439.58 684.435 1448.36 593.795 1447.17 504.772C1446.27 432.55 1457.59 365.366 1497.02 339.269C1511.62 329.706 1528.34 324.06 1545.92 321.051C1583.16 314.68 1624.46 320.03 1658.98 324.961C1707.04 331.832 1740.94 334.018 1762.47 330.334C1786.88 325.959 1795.14 315.07 1791.71 294.024C1789.94 283.686 1785.13 270.93 1777.55 255.64C1745.2 190.291 1655.28 96.354 1469.96 24.4013C1331.68 -29.2749 1136.6 -64.5214 957.94 -33.9516C899.303 -23.9185 842.448 -6.79719 789.941 19.0583C715.229 55.9308 665.546 113.816 673.811 161.348C674.23 163.799 674.795 166.204 675.535 168.6C691.366 220.608 761.02 263.932 834.079 325.103C968.583 437.913 1026.9 587.454 1080.13 690.28Z" fill="#16A2FF"/>
<path d="M1799.84 329.469C1794.76 335.713 1786.22 339.653 1773.99 341.747C1751.94 345.496 1717.7 343.347 1669.05 336.973C1635.9 332.598 1596.59 328.177 1561.32 334.213C1543.18 337.317 1526.1 343.178 1511.43 353.192C1474.03 378.766 1462.96 444.569 1464.1 515.61C1465.49 603.874 1457.42 693.8 1438.04 763.614C1418.65 833.385 1388.01 883.339 1343.56 891.011C1340.75 891.492 1337.88 891.807 1334.96 891.933C1203.56 897.392 1148.56 791.096 1102.16 702.351C1048.64 599.86 988.596 452.172 855.363 339.868C783.39 279.148 714.597 235.983 698.314 183.131C697.561 180.65 696.956 178.142 696.526 175.627C688.32 126.9 737.64 69.8448 811.056 33.3476C862.999 7.65462 919.374 -9.31896 977.543 -19.2718C1153.67 -49.4075 1346.39 -15.0965 1483.93 37.8717C1669.4 109.515 1759.02 202.976 1790.74 266.921C1798.02 281.689 1802.72 294.027 1804.47 304.236C1804.47 304.258 1804.48 304.279 1804.49 304.322C1806.24 314.837 1804.89 323.23 1799.84 329.469ZM1104.05 701.368C1150.59 790.266 1204.97 895.242 1334.86 889.801C1337.69 889.667 1340.47 889.367 1343.2 888.901C1386.1 881.648 1416.67 832.626 1435.97 763.047C1455.27 693.532 1463.34 603.759 1461.95 515.648C1460.91 444.415 1471.63 378.058 1510.22 351.402C1525.21 341.159 1542.6 335.222 1560.97 332.057C1596.69 325.944 1636.16 330.424 1669.35 334.792C1717.92 341.181 1752.07 343.281 1773.64 339.59C1797.54 335.303 1805.62 324.947 1802.32 304.626C1800.63 294.757 1796.02 282.558 1788.77 267.893C1757.43 204.608 1668.23 111.383 1483.14 39.8946C1345.95 -12.9579 1153.48 -47.1812 977.886 -17.1367C919.888 -7.21298 863.726 9.72413 812.003 35.2918C738.913 71.5138 690.481 128.374 698.636 175.266C699.052 177.696 699.62 180.122 700.356 182.497C716.068 234.064 784.571 277.454 856.746 338.205C990.446 450.934 1050.58 599.044 1104.05 701.368Z" fill="#16A2FF"/>
<path d="M1782.98 315.723C1778 321.753 1769.61 325.515 1757.65 327.561C1735.63 331.328 1701.19 329.28 1652.11 323.394C1620.33 319.575 1582.89 315.954 1549.09 321.738C1530.16 324.976 1512.39 331.154 1497.35 341.845C1460.66 367.824 1450.21 432.907 1451.54 502.972C1453.1 590.308 1445.73 679.325 1427.11 748.46C1408.47 817.531 1378.66 867.015 1334.64 874.635C1332.33 875.029 1329.99 875.299 1327.63 875.462C1206.26 883.042 1146.56 780.578 1098.61 689.838C1044.83 587.853 982.958 441.662 850.558 329.479C779.451 269.203 711.831 225.969 695.717 173.594C694.967 171.133 694.388 168.643 693.954 166.107C685.854 117.998 733.933 61.9008 805.823 26.1035C857.025 0.69098 912.704 -16.1197 970.276 -25.9704C1143.31 -55.5773 1333.36 -22.2785 1469.71 29.9056C1654.85 100.903 1743.77 193.607 1774.45 255.622C1781.44 269.783 1785.91 281.567 1787.59 291.351C1787.59 291.372 1787.6 291.393 1787.6 291.393C1789.32 301.586 1787.96 309.694 1782.98 315.723ZM1100.5 688.834C1148.51 779.652 1207.67 880.871 1327.47 873.294C1329.77 873.142 1332.03 872.865 1334.27 872.483C1376.74 865.303 1406.48 816.775 1425.01 747.875C1443.55 679.039 1450.94 590.171 1449.37 502.992C1448.14 432.755 1458.26 367.116 1496.1 340.062C1511.5 329.113 1529.58 322.86 1548.74 319.581C1582.95 313.728 1620.55 317.409 1652.38 321.221C1701.39 327.096 1735.75 329.092 1757.3 325.404C1780.72 321.201 1788.64 311.333 1785.45 291.694C1783.84 282.273 1779.43 270.61 1772.51 256.568C1742.18 195.238 1653.7 102.746 1468.94 31.9247C1332.94 -20.1436 1143.16 -53.3583 970.64 -23.8389C913.239 -14.0173 857.748 2.73918 806.791 28.044C735.227 63.5662 688.053 119.443 696.085 165.742C696.501 168.172 697.066 170.577 697.78 172.955C713.327 224.068 780.656 267.527 851.941 327.817C984.762 440.41 1046.77 587.016 1100.5 688.834Z" fill="#16A2FF"/>
<path d="M1755.97 290.531C1751.15 295.963 1743.17 299.346 1731.83 301.286C1709.9 305.039 1675.17 303.39 1625.41 299.267C1597.9 296.976 1566.15 295.41 1536.88 300.417C1515.55 304.068 1495.55 311.197 1479.41 324.029C1445.04 351.278 1436.18 413.894 1437.82 480.901C1439.86 565.39 1434.49 651.586 1418.06 718.547C1401.65 785.44 1374.23 833.438 1331.49 840.84C1330.7 840.975 1329.91 841.088 1329.13 841.198C1231.32 853.811 1161.24 759.045 1111.25 667.556C1056.55 567.221 989.409 425.509 859.773 313.971C791.435 255.13 727.381 211.835 711.973 160.896C711.259 158.517 710.691 156.091 710.275 153.661C702.46 107.347 747.21 54.1005 814.732 20.2133C863.616 -4.25417 917.161 -20.4583 972.75 -29.9698C1136.68 -58.0195 1318.4 -27.7706 1450.95 21.7743C1634.34 90.5038 1721.01 180.587 1749.02 237.003C1755.17 249.444 1759.09 259.787 1760.57 268.352C1760.58 268.373 1760.58 268.395 1760.58 268.395C1762.13 277.716 1760.76 285.082 1755.97 290.531ZM1113.16 666.528C1163.06 757.989 1232.84 851.664 1328.86 839.073C1329.61 838.988 1330.38 838.857 1331.13 838.729C1372.3 831.772 1399.64 784.773 1415.96 718.051C1432.31 651.389 1437.68 565.346 1435.64 480.988C1434.09 413.814 1442.63 350.681 1478.05 322.375C1494.56 309.26 1514.93 302.001 1536.5 298.31C1566.09 293.248 1597.99 294.831 1625.57 297.134C1675.29 301.263 1709.98 302.852 1731.45 299.18C1753.67 295.18 1761.28 286.594 1758.38 268.728C1756.97 260.5 1753.12 250.32 1747.04 237.978C1719.41 182.264 1633.16 92.3717 1450.16 23.8183C1317.94 -25.6071 1136.47 -55.7895 973.073 -27.8311C917.654 -18.3487 864.322 -2.18103 815.657 22.1611C748.508 55.7872 704.635 108.774 712.367 153.325C712.769 155.67 713.319 157.989 714.001 160.307C728.891 210.019 792.651 253.518 861.146 312.376C991.23 424.232 1058.49 566.296 1113.16 666.528Z" fill="#16A2FF"/>
<path d="M1751.63 296.078C1746.85 301.349 1738.98 304.625 1727.81 306.537C1705.97 310.275 1671.25 308.8 1621.44 305.321C1595.38 303.507 1565.54 302.512 1537.81 307.257C1515.65 311.05 1494.87 318.509 1478.39 332.058C1444.79 359.659 1436.4 421.447 1438.12 487.409C1440.31 570.952 1435.55 656.143 1419.85 722.343C1404.14 788.479 1377.49 835.931 1335.15 843.263C1334.87 843.31 1334.59 843.357 1334.34 843.401C1242.12 857.447 1170.27 764.52 1120.1 673.743C1065.04 574.018 996.228 433.82 867.589 322.594C800.178 264.296 737.392 220.981 722.247 170.546C721.561 168.206 721.003 165.845 720.595 163.457C712.875 117.697 756.626 65.4114 822.75 32.0706C870.839 7.95851 923.649 -8.05408 978.557 -17.4489C1139.46 -44.9806 1318.36 -15.7398 1449.56 32.8937C1632.12 100.756 1718.08 189.775 1745.19 244.482C1751.07 256.398 1754.8 266.269 1756.2 274.475C1756.21 274.496 1756.21 274.539 1756.22 274.56C1757.77 283.64 1756.39 290.81 1751.63 296.078ZM1121.98 672.697C1172.06 763.425 1243.68 855.272 1334.02 841.262C1334.25 841.222 1334.51 841.179 1334.78 841.131C1375.55 834.243 1402.11 787.795 1417.75 721.847C1433.4 655.964 1438.15 570.883 1435.96 487.472C1434.32 421.321 1442.4 359.036 1477.01 330.407C1493.9 316.526 1515.05 308.98 1537.45 305.146C1565.48 300.351 1595.47 301.362 1621.58 303.191C1671.32 306.681 1706.01 308.117 1727.44 304.451C1749.34 300.507 1756.85 292.265 1754.06 274.907C1752.71 267.042 1749.05 257.313 1743.24 245.496C1716.51 191.513 1630.97 102.662 1448.77 34.9802C1317.9 -13.5338 1139.28 -42.7116 978.89 -15.2461C924.153 -5.88044 871.552 10.0744 823.683 34.0611C757.906 67.123 715.053 119.145 722.691 163.143C723.085 165.445 723.628 167.721 724.278 169.979C738.906 219.187 801.397 262.706 868.962 320.999C998.046 432.521 1066.98 573.05 1121.98 672.697Z" fill="#16A2FF"/>
<path d="M1744 257.651C1739.3 262.382 1731.64 265.295 1720.9 267.133C1699.39 270.813 1665.21 270.168 1616.46 269.404C1596.57 269.077 1574.54 269.709 1553.33 273.338C1527.61 277.74 1503.16 286.573 1485.25 303.438C1454.69 332.142 1447.83 390.422 1449.84 452.166C1452.31 530.087 1450.11 609.38 1437.79 671.754C1425.46 734.065 1403.13 779.745 1364.61 789.78C1362.11 790.427 1359.59 790.968 1357.1 791.395C1281.36 804.179 1213.98 720.952 1164.41 635.996C1107.88 538.868 1032.87 405.128 908.687 295.576C845.242 239.561 787.499 196.48 773.788 148.147C773.221 146.116 772.761 144.066 772.411 142.02C765.031 98.3738 805.153 49.4956 866.227 18.4448C911.219 -4.28171 961.018 -19.4281 1013.07 -28.3343C1162 -53.8163 1329.24 -28.308 1454.57 16.4153C1632.67 80.1477 1715.58 164.534 1739.53 212.915C1744.44 222.891 1747.56 231.154 1748.75 238.081C1748.75 238.103 1748.76 238.145 1748.76 238.166C1750.17 246.415 1748.72 252.917 1744 257.651ZM1166.28 634.886C1215.72 719.821 1283.03 802.028 1356.75 789.238C1359.18 788.822 1361.63 788.293 1364.1 787.674C1401.11 778.182 1423.47 733.462 1435.7 671.323C1447.96 609.243 1450.18 530.036 1447.7 452.204C1445.75 390.275 1452.35 331.533 1483.77 301.826C1502.14 284.555 1527.03 275.623 1552.99 271.181C1574.39 267.52 1596.55 266.909 1616.5 267.224C1665.26 268.009 1699.43 268.612 1720.55 264.998C1731.13 263.189 1738.34 260.331 1742.49 256.111C1746.62 251.916 1747.97 246.354 1746.63 238.4C1745.51 231.835 1742.47 223.71 1737.6 213.837C1714.1 166.236 1631.56 81.9834 1453.86 18.4234C1328.85 -26.2017 1161.87 -51.6222 1013.45 -26.2277C961.571 -17.3507 911.978 -2.28338 867.21 20.339C806.486 51.1323 767.269 99.6583 774.556 141.609C774.896 143.592 775.341 145.556 775.876 147.526C789.098 194.671 846.561 237.909 910.116 293.927C1034.64 403.773 1109.74 537.783 1166.28 634.886Z" fill="#16A2FF"/>
<path d="M1742.8 278.326C1738.08 282.95 1730.43 285.795 1719.71 287.63C1698.31 291.291 1664.41 290.904 1616.24 290.81C1597.96 290.8 1577.86 291.672 1558.38 295.006C1531.74 299.565 1506.28 308.726 1487.99 326.488C1458.21 355.431 1451.7 412.774 1453.7 473.445C1456.25 549.883 1454.59 627.613 1443.08 688.949C1431.56 750.243 1410.26 795.417 1372.81 806.17C1369.71 807.05 1366.63 807.732 1363.56 808.257C1291.1 820.479 1225.42 739.706 1175.97 656.264C1119.02 559.867 1042.64 427.832 919.726 318.807C857.308 263.406 800.835 220.438 787.567 172.643C787.039 170.715 786.601 168.793 786.266 166.832C778.966 123.655 818.227 75.5161 878.202 45.0922C922.438 22.6924 971.488 7.78392 1022.84 -1.00187C1168.78 -25.9733 1333.06 -1.3411 1456.78 42.4079C1633.46 105.002 1715.6 188.093 1738.81 235.02C1743.51 244.549 1746.51 252.461 1747.65 259.111C1747.66 259.154 1747.66 259.175 1747.67 259.218C1749.03 267.321 1747.54 273.698 1742.8 278.326ZM1177.82 655.157C1227.09 738.607 1292.78 818.35 1363.17 806.129C1366.18 805.615 1369.18 804.948 1372.19 804.082C1408.16 793.912 1429.48 749.655 1440.92 688.528C1452.39 627.462 1454.05 549.843 1451.49 473.493C1449.55 412.638 1455.83 354.829 1486.45 324.909C1505.21 306.715 1531.11 297.456 1557.99 292.857C1577.66 289.49 1597.88 288.621 1616.22 288.642C1664.39 288.736 1698.31 289.098 1719.32 285.502C1729.87 283.697 1737.12 280.9 1741.26 276.79C1745.41 272.68 1746.79 267.267 1745.47 259.462C1744.39 253.152 1741.49 245.401 1736.82 235.975C1714.05 189.828 1632.33 106.862 1456.01 44.4484C1332.62 0.797453 1168.59 -23.747 1023.16 1.13692C972.002 9.88988 923.14 24.7442 879.149 47.0361C819.546 77.199 781.168 124.989 788.354 166.475C788.675 168.35 789.082 170.212 789.598 172.076C802.402 218.699 858.571 261.808 921.095 317.191C1044.38 426.48 1120.88 558.781 1177.82 655.157Z" fill="#16A2FF"/>
<path d="M1701.49 267.842C1696.74 272.385 1689.1 275.141 1678.38 276.997C1657.13 280.633 1623.54 280.522 1576.04 281.125C1559.4 281.339 1541.28 282.377 1523.52 285.415C1495.94 290.134 1469.36 299.684 1450.71 318.387C1421.63 347.451 1415.44 403.929 1417.5 463.536C1420.03 538.485 1418.91 614.63 1408.19 674.932C1397.45 735.17 1377.23 779.832 1340.84 791.259C1337.23 792.358 1333.63 793.238 1330.05 793.851C1260.75 805.533 1196.62 727.192 1147.34 645.213C1089.97 549.611 1012.3 419.267 890.675 310.834C829.33 256.061 774.172 213.218 761.33 165.987C760.846 164.183 760.447 162.365 760.133 160.531C752.917 117.844 791.439 70.5121 850.271 40.5908C893.72 18.5891 941.995 3.90085 992.533 -4.74635C1135.56 -29.2182 1296.86 -5.47952 1419 37.2453C1594.17 98.6262 1675.45 180.417 1698.01 225.921C1702.48 235.028 1705.33 242.591 1706.42 248.943C1706.43 248.986 1706.43 249.029 1706.44 249.071C1707.79 257.068 1706.25 263.321 1701.49 267.842ZM1149.18 644.064C1198.31 726.025 1262.46 803.354 1329.66 791.701C1333.16 791.103 1336.65 790.263 1340.18 789.178C1375.12 778.351 1395.38 734.604 1406.03 674.533C1416.7 614.526 1417.86 538.484 1415.31 463.603C1413.31 403.832 1419.28 346.888 1449.18 316.85C1468.3 297.695 1495.34 288.043 1523.13 283.266C1541.04 280.202 1559.27 279.167 1575.97 278.964C1623.48 278.361 1657.08 278.447 1677.99 274.869C1688.54 273.064 1695.82 270.327 1699.98 266.302C1704.14 262.278 1705.52 257.017 1704.25 249.315C1703.21 243.283 1700.45 235.879 1696.02 226.875C1673.93 182.169 1593.04 100.487 1418.24 39.2608C1296.43 -3.34464 1135.39 -27.0167 992.873 -2.63239C942.484 5.98929 894.415 20.5984 851.211 42.4923C792.729 72.1562 755.112 119.136 762.218 160.153C762.521 161.922 762.909 163.676 763.379 165.395C775.757 211.455 830.627 254.413 892.083 309.189C1014.04 417.894 1091.82 548.462 1149.18 644.064Z" fill="#16A2FF"/>
<path d="M1675.13 254.56C1670.18 258.851 1662.32 261.491 1651.34 263.37C1630.52 266.933 1598.36 267.718 1553.68 270.339C1542.12 271.022 1529.84 272.223 1517.59 274.32C1487.26 279.51 1456.95 290.203 1437.16 311.907C1410.32 341.335 1404.83 395.016 1406.88 451.356C1409.42 521.85 1409.64 593.18 1401.08 650.216C1392.49 707.192 1375.24 750.116 1342.11 763.31C1337.36 765.175 1332.61 766.494 1327.86 767.307C1267.07 777.509 1207.25 706.242 1158.24 628.539C1099.71 535.484 1018.47 410.597 901.127 304.219C843.008 251.505 791.816 209.146 780.517 163.625C780.17 162.237 779.887 160.837 779.646 159.431C772.663 118.107 809.09 73.0207 864.851 44.6342C905.968 23.7554 951.869 9.80256 1000.08 1.55289C1134.41 -21.4309 1286.76 -0.13156 1403.84 39.4652C1573.85 97.1461 1652.61 174.585 1673.13 216.202C1677.03 224.134 1679.48 230.737 1680.44 236.364C1680.45 236.406 1680.46 236.449 1680.47 236.513C1681.79 244.272 1680.08 250.291 1675.13 254.56ZM1160.09 627.411C1208.9 705.125 1268.87 775.425 1327.49 765.197C1332.1 764.409 1336.71 763.138 1341.31 761.319C1373.09 748.796 1390.43 706.71 1398.95 649.901C1407.46 593.136 1407.27 521.888 1404.72 451.44C1402.71 394.919 1408 340.833 1435.56 310.471C1455.86 288.217 1486.64 277.444 1517.2 272.192C1529.57 270.077 1541.91 268.865 1553.53 268.193C1598.23 265.568 1630.43 264.775 1650.96 261.263C1661.79 259.41 1669.32 256.782 1673.69 252.942C1678.04 249.105 1679.52 244.178 1678.3 236.775C1677.39 231.488 1675.01 225.028 1671.17 217.195C1651.12 176.419 1572.74 99.0456 1403.12 41.5407C1286.36 2.02072 1134.26 -19.2119 1000.41 3.71297C952.365 11.9335 906.674 25.8284 865.798 46.5782C810.434 74.7212 774.88 119.395 781.76 159.091C781.99 160.434 782.266 161.791 782.606 163.136C793.484 207.479 844.363 249.935 902.567 302.634C1020.19 409.229 1101.53 534.295 1160.09 627.411Z" fill="#16A2FF"/>
<path d="M1666.7 252.339C1661.65 256.581 1653.61 259.186 1642.42 261.122C1621.79 264.652 1590.25 265.748 1546.83 268.943C1537.02 269.679 1526.71 270.829 1516.35 272.601C1485.1 277.948 1453.41 289.01 1433.26 311.807C1407.16 341.306 1401.85 394.034 1403.87 449.282C1406.37 518.291 1406.98 588.018 1399.06 643.914C1391.13 699.767 1374.83 742.048 1342.77 755.738C1337.75 757.847 1332.72 759.322 1327.67 760.187C1269.49 769.944 1210.95 700.914 1162 624.605C1103.06 532.497 1020.81 409.539 905.047 303.921C848.054 251.892 798.236 209.737 787.441 164.854C787.144 163.632 786.89 162.403 786.678 161.167C779.769 120.27 815.566 75.8617 870.361 47.9913C910.716 27.5282 955.804 13.8242 1003.23 5.70946C1134.72 -16.7893 1284.05 3.66622 1399.39 42.2894C1567.46 98.6562 1645.31 174.628 1665.25 215.027C1668.93 222.58 1671.27 228.895 1672.21 234.284C1672.22 234.348 1672.23 234.39 1672.24 234.454C1673.53 242.153 1671.75 248.119 1666.7 252.339ZM1163.82 623.459C1212.6 699.777 1271.26 767.864 1327.31 758.077C1332.19 757.241 1337.06 755.816 1341.93 753.776C1372.66 740.795 1389.08 699.328 1396.93 643.621C1404.8 587.974 1404.21 518.311 1401.71 449.366C1399.71 393.94 1404.83 340.804 1431.64 310.395C1452.34 286.998 1484.53 275.874 1515.99 270.47C1526.43 268.683 1536.81 267.522 1546.68 266.775C1590.14 263.573 1621.7 262.473 1642.05 258.969C1653.1 257.08 1660.81 254.466 1665.29 250.671C1669.73 246.862 1671.29 241.988 1670.07 234.606C1669.2 229.533 1666.94 223.382 1663.32 215.949C1643.88 176.429 1566.41 100.502 1398.73 44.3115C1283.71 5.78653 1134.64 -14.6025 1003.61 7.816C956.357 15.9016 911.479 29.5477 871.369 49.9032C816.927 77.5373 782.021 121.508 788.828 160.777C789.032 161.971 789.279 163.157 789.547 164.34C799.925 208.066 849.431 250.319 906.505 302.311C1022.51 408.173 1104.86 531.312 1163.82 623.459Z" fill="#16A2FF"/>
<path d="M1647.91 242.128C1642.52 246.297 1634.05 248.843 1622.29 250.878C1602.08 254.335 1572.11 256.107 1531.65 260.441C1529.51 260.674 1527.39 260.971 1525.24 261.34C1460.07 272.446 1392.72 346.804 1396.11 439.091C1398.5 505.114 1399.77 571.614 1393.08 625.215C1386.36 678.799 1371.84 719.699 1341.92 734.23C1336.53 736.82 1331.09 738.539 1325.6 739.48C1272.13 748.431 1216.05 683.785 1167.16 610.163C1107.48 520.092 1023.5 401.027 911.019 297.151C856.34 246.591 809.232 204.894 799.573 161.264C799.381 160.398 799.21 159.527 799.064 158.675C792.272 118.592 826.923 75.5639 879.949 48.6326C918.732 28.9868 962.197 15.8016 1007.96 7.97131C1133.85 -13.5683 1277.22 5.40573 1388.97 41.9219C1552.92 95.6365 1628.89 168.463 1647.64 206.589C1650.98 213.453 1653.09 219.236 1653.94 224.181C1653.95 224.245 1653.96 224.309 1653.97 224.351C1655.3 232.11 1653.28 238.006 1647.91 242.128ZM1168.94 609.003C1217.63 682.637 1273.9 746.351 1325.21 737.373C1330.5 736.469 1335.74 734.804 1340.95 732.311C1369.62 718.542 1384.27 678.388 1390.91 624.972C1397.57 571.595 1396.34 505.176 1393.93 439.179C1390.57 345.789 1458.44 270.619 1524.85 259.212C1527.03 258.84 1529.21 258.532 1531.39 258.291C1571.89 253.95 1601.91 252.171 1621.9 248.728C1633.53 246.737 1641.76 244.167 1646.56 240.406C1651.33 236.649 1653 231.91 1651.79 224.549C1650.99 219.902 1648.95 214.283 1645.67 207.539C1627.46 170.31 1551.83 97.4898 1388.27 43.9726C1276.82 7.53697 1133.7 -11.3704 1008.3 10.0853C962.708 17.8864 919.452 31.0135 880.913 50.5516C828.285 77.2394 794.524 119.83 801.171 158.292C801.313 159.124 801.477 159.951 801.665 160.797C810.928 203.265 857.698 245.043 912.459 295.566C1025.15 399.647 1109.22 518.872 1168.94 609.003Z" fill="#16A2FF"/>
<path d="M1629.13 234.459C1623.19 238.591 1613.91 241.144 1601.08 243.34C1581.51 246.688 1553.67 249.147 1517.15 254.3C1516.21 254.439 1515.26 254.578 1514.35 254.735C1450.69 265.561 1385.59 340.411 1388.82 430.818C1391.05 493.862 1392.81 557.118 1387.19 608.364C1381.54 659.593 1368.65 699.029 1340.86 714.205C1335.28 717.201 1329.58 719.163 1323.8 720.151C1274.55 728.359 1220.74 667.866 1171.88 596.939C1111.54 509.085 1026.16 394.122 917.255 292.179C864.921 243.149 820.561 201.99 812.155 159.66C812.075 159.191 811.97 158.704 811.889 158.236C805.232 118.941 838.936 77.3038 890.249 51.2581C927.486 32.4473 969.285 19.7883 1013.36 12.2462C1133.75 -8.35245 1271.15 9.16482 1379.22 43.6562C1538.66 94.6316 1612.7 164.234 1630.3 200.275C1633.3 206.498 1635.21 211.765 1635.99 216.327C1636 216.391 1636.01 216.476 1636.02 216.54C1637.4 224.465 1635.04 230.398 1629.13 234.459ZM1173.63 595.762C1222.3 666.722 1276.33 726.343 1323.4 718.07C1328.94 717.122 1334.41 715.242 1339.8 712.346C1366.39 697.969 1379.44 659.229 1385 608.167C1390.6 557.145 1388.85 493.953 1386.62 430.93C1383.43 339.421 1448.98 263.791 1513.94 252.632C1514.9 252.468 1515.84 252.329 1516.81 252.186C1553.37 247.026 1581.25 244.538 1600.67 241.216C1613.41 239.035 1622.48 236.475 1627.86 232.68C1633.2 228.871 1635.08 224.205 1633.86 216.713C1633.13 212.45 1631.29 207.345 1628.36 201.243C1611.3 166.164 1537.63 96.5413 1378.57 45.7422C1270.79 11.3312 1133.65 -6.1194 1013.73 14.399C969.824 21.912 928.234 34.513 891.221 53.2198C840.284 79.0258 807.488 120.2 814.003 157.896C814.08 158.343 814.16 158.813 814.262 159.278C822.317 200.461 866.333 241.656 918.706 290.658C1027.79 392.746 1113.26 507.848 1173.63 595.762Z" fill="#16A2FF"/>
<path d="M1595.04 217.3C1590.73 221.197 1583.93 223.896 1574.67 226.315C1556.12 231.155 1527.49 234.848 1488.68 243.22C1429.28 255.952 1371.32 329.732 1373.96 414.272C1377.34 528.48 1383.79 641.481 1336.44 672.991C1330.03 677.161 1323.43 679.781 1316.68 680.937C1271.32 688.456 1220.03 632.051 1156.96 552.323C1093.94 472.519 1019.43 369.034 929.101 281.662C882.412 236.514 844.199 197.178 837.475 158.136C837.377 157.56 837.278 156.985 837.201 156.406C831.803 118.958 863.654 80.4678 911.481 56.4884C945.636 39.4116 984.053 27.8801 1024.62 20.9397C1134.39 2.15735 1259.99 17.0414 1360.47 47.566C1509.94 93.0526 1579.72 155.948 1595.24 188.218C1597.65 193.291 1599.19 197.679 1599.85 201.537C1599.85 201.58 1599.86 201.643 1599.87 201.686C1600.99 208.251 1599.36 213.445 1595.04 217.3ZM1158.66 550.978C1221.57 630.8 1273.18 686.404 1316.31 678.784C1322.77 677.679 1329.08 675.195 1335.25 671.155C1380.9 641.515 1375.46 528.517 1371.8 414.314C1369.23 328.753 1427.51 254.214 1488.23 241.082C1546.51 228.587 1582.12 226.289 1593.6 215.681C1597.39 212.202 1598.75 208.065 1597.73 201.877C1597.12 198.296 1595.65 194.071 1593.29 189.122C1578.36 157.891 1508.94 94.9126 1359.83 49.6058C1259.65 19.1617 1134.28 4.32649 1024.98 23.05C984.585 29.9612 946.381 41.4563 912.446 58.4077C864.998 82.1686 834.055 120.196 839.344 156.105C839.417 156.663 839.512 157.217 839.607 157.771C846.031 195.702 883.913 235.028 930.612 280.109C1021.11 367.672 1095.67 471.235 1158.66 550.978Z" fill="#16A2FF"/>
<path d="M1586.02 213.666C1581.74 217.556 1575.06 220.28 1565.94 222.783C1547.69 227.792 1519.6 231.81 1481.71 240.662C1423.59 254.269 1367.83 327.369 1370.22 410.108C1373.33 521.355 1380.32 630.951 1334.85 662.425C1328.56 666.683 1322.04 669.356 1315.33 670.505C1271.51 677.762 1220.48 622.87 1157.65 544.943C1094.89 466.915 1020.65 365.491 931.965 278.912C886.97 234.944 850.413 196.312 843.864 158.293C843.711 157.398 843.579 156.499 843.465 155.575C838.692 118.701 870.074 81.1903 916.922 57.7733C950.322 41.1548 987.862 29.8831 1027.51 23.0996C1134.68 4.7621 1257.42 19.061 1355.96 48.6021C1502.74 92.7707 1571.42 153.879 1586.43 185.316C1588.7 190.148 1590.17 194.351 1590.8 198.039C1590.81 198.081 1590.82 198.145 1590.83 198.188C1591.91 204.671 1590.27 209.801 1586.02 213.666ZM1159.3 543.585C1221.95 621.63 1273.36 675.734 1314.94 668.377C1321.36 667.279 1327.58 664.768 1333.63 660.66C1377.46 631.024 1371.44 521.438 1368.07 410.192C1365.72 326.479 1421.8 252.624 1481.22 238.595C1538.15 225.345 1573.23 222.677 1584.58 212.09C1588.33 208.619 1589.67 204.528 1588.68 198.446C1588.09 195.014 1586.7 190.996 1584.47 186.288C1570.08 155.907 1501.73 94.6984 1355.31 50.7309C1257.05 21.2739 1134.58 7.01642 1027.86 25.2986C988.366 32.0566 951.035 43.2705 917.859 59.785C871.39 82.9835 840.869 120.017 845.58 155.367C845.686 156.248 845.836 157.122 845.986 157.996C852.256 194.9 888.461 233.526 933.466 277.426C1022.3 364.091 1096.58 465.617 1159.3 543.585Z" fill="#16A2FF"/>
<path d="M1592.73 213.154C1588.52 217.033 1581.91 219.788 1572.94 222.376C1555 227.53 1527.44 231.894 1490.48 241.268C1433.64 255.666 1380 328.095 1382.16 408.986C1384.94 517.285 1392.4 623.465 1348.76 654.846C1342.61 659.167 1336.2 661.844 1329.53 662.985C1287.16 669.994 1236.34 616.623 1173.8 540.49C1111.33 464.256 1037.46 364.875 950.478 279.145C907.163 236.404 872.287 198.493 865.917 161.519C865.705 160.282 865.515 159.042 865.364 157.774C861.215 121.473 892.15 84.9383 938.044 62.1012C970.668 45.9447 1007.34 34.9753 1046.09 28.3449C1150.72 10.4414 1270.57 24.1167 1367.17 52.7169C1511.21 95.4895 1578.68 154.917 1593.25 185.532C1595.42 190.14 1596.8 194.138 1597.41 197.697C1597.42 197.74 1597.43 197.782 1597.44 197.846C1598.56 204.259 1596.92 209.321 1592.73 213.154ZM1175.48 539.128C1237.84 615.379 1289.01 667.966 1329.17 660.875C1335.52 659.788 1341.63 657.252 1347.52 653.106C1389.57 623.577 1383.05 517.367 1380.01 409.07C1377.89 327.205 1431.85 254.042 1489.95 239.208C1545.47 225.189 1580.03 222.15 1591.26 211.607C1594.96 208.142 1596.29 204.119 1595.31 198.122C1594.75 194.84 1593.44 191.006 1591.31 186.521C1577.4 157.003 1510.25 97.431 1366.57 54.8596C1270.27 26.3185 1150.67 12.7099 1046.49 30.5368C1007.91 37.138 971.423 48.053 939.041 64.0806C893.526 86.6991 863.439 122.803 867.546 157.576C867.686 158.781 867.872 159.999 868.077 161.193C874.176 197.095 908.717 234.975 952.018 277.631C1039.13 363.513 1113.06 462.951 1175.48 539.128Z" fill="#16A2FF"/>
<path d="M1606.77 201.493C1602.6 205.343 1596.11 208.144 1587.3 210.813C1569.68 216.133 1542.68 220.818 1506.68 230.707C1451.16 245.977 1399.51 317.537 1401.44 396.606C1403.87 501.98 1411.72 604.782 1369.83 635.927C1363.84 640.287 1357.53 642.991 1350.92 644.122C1309.89 650.901 1259.32 599.068 1197.1 524.7C1134.95 450.254 1061.52 352.947 976.34 268.094C934.754 226.615 901.524 189.475 895.337 153.567C895.063 151.968 894.832 150.362 894.686 148.742C891.187 113.031 921.679 77.4944 966.637 55.2124C998.501 39.4929 1034.3 28.826 1072.13 22.3311C1174.25 4.85803 1291.24 18.0122 1385.86 45.6575C1527.11 87.0876 1593.4 144.786 1607.48 174.606C1609.52 178.973 1610.83 182.786 1611.44 186.193C1611.44 186.235 1611.45 186.278 1611.46 186.321C1612.54 192.63 1610.92 197.646 1606.77 201.493ZM1198.77 523.296C1260.78 597.743 1311.76 648.848 1350.57 641.965C1356.84 640.893 1362.83 638.354 1368.57 634.17C1408.9 604.868 1401.99 502.016 1399.29 396.643C1397.43 316.622 1449.32 244.339 1506.1 228.612C1560.2 213.806 1594.21 210.421 1605.29 199.903C1608.96 196.446 1610.27 192.469 1609.31 186.579C1608.77 183.445 1607.53 179.775 1605.53 175.531C1592.11 146.807 1526.13 88.9655 1385.25 47.7364C1290.91 20.1539 1174.17 7.06611 1072.5 24.4626C1034.83 30.907 999.225 41.541 967.602 57.1316C923.023 79.195 893.379 114.302 896.843 148.526C896.999 150.079 897.223 151.642 897.489 153.198C903.413 188.077 936.305 225.165 977.876 266.559C1063.21 351.539 1136.68 448.927 1198.77 523.296Z" fill="#16A2FF"/>
<path d="M1525.83 205.799C1521.73 209.66 1515.35 212.506 1506.71 215.256C1489.44 220.734 1463.01 225.74 1427.94 236.084C1373.69 252.124 1324.07 322.833 1325.73 400.082C1327.79 502.514 1335.92 601.955 1295.74 632.809C1289.91 637.186 1283.7 639.893 1277.18 641.009C1237.41 647.573 1187.05 597.261 1125.2 524.694C1063.43 452.048 990.531 356.801 907.21 272.836C867.361 232.661 835.806 196.332 829.8 161.49C829.461 159.507 829.211 157.532 829.045 155.541C826.178 120.447 856.258 85.836 900.33 64.1445C931.421 48.9082 966.305 38.5296 1003.2 32.2165C1102.85 15.1665 1217.02 27.7499 1309.71 54.4971C1448.08 94.6206 1513.17 150.528 1526.77 179.618C1528.68 183.745 1529.92 187.373 1530.47 190.634C1530.48 190.677 1530.49 190.719 1530.5 190.783C1531.5 196.997 1529.91 201.963 1525.83 205.799ZM1126.82 523.276C1188.46 595.922 1239.22 645.507 1276.79 638.86C1282.97 637.802 1288.83 635.264 1294.41 631.062C1333.08 602.067 1325.86 502.558 1323.54 400.106C1321.94 321.925 1371.81 250.536 1427.3 234C1480 218.51 1513.41 214.747 1524.31 204.216C1527.9 200.749 1529.22 196.793 1528.25 190.992C1527.74 187.987 1526.58 184.522 1524.71 180.52C1511.81 152.561 1447.01 96.4702 1309.01 56.569C1216.62 29.9023 1102.68 17.3679 1003.48 34.3626C966.755 40.6465 932.059 50.9711 901.191 66.1032C857.517 87.5513 828.246 121.76 831.125 155.383C831.279 157.309 831.539 159.217 831.871 161.157C837.616 194.991 868.855 231.265 908.686 271.333C992.178 355.4 1065.11 450.708 1126.82 523.276Z" fill="#16A2FF"/>
<path d="M1522.48 206.634C1505.88 212.437 1480.65 218.049 1447.51 229.27C1395.83 246.778 1350.06 315.6 1351.11 389.179C1352.37 485.781 1360.82 578.629 1323.77 608.553C1318.28 612.892 1312.33 615.534 1306.02 616.614C1268.49 622.816 1218.61 575.538 1157.64 506.551C1096.75 437.506 1025.15 346.402 945.732 264.358C914.146 231.698 895.199 197.512 889.809 166.009C882.475 123.407 900.224 85.7067 944.588 64.1846C974.147 49.8686 1007.29 40.0736 1042.31 34.0814C1137.1 17.8629 1245.68 29.4286 1334.35 54.4048C1466.84 91.8483 1529.36 144.379 1542.08 172.019C1543.74 175.706 1544.83 178.986 1545.34 181.97C1545.34 181.991 1545.34 182.013 1545.35 182.034C1547.51 194.521 1538.94 200.989 1522.48 206.634ZM1159.26 505.133C1220 574.181 1270.29 620.775 1305.66 614.504C1311.63 613.483 1317.21 610.991 1322.43 606.873C1358.04 578.798 1350.47 485.842 1348.97 389.217C1347.98 314.727 1393.97 245.254 1446.83 227.236C1480.07 215.975 1505.41 210.324 1521.79 204.604C1538.27 198.734 1545.08 193.401 1543.23 182.374C1542.77 179.645 1541.75 176.507 1540.13 172.945C1528.1 146.482 1465.89 93.7439 1333.77 56.5228C1245.37 31.6094 1137.02 20.1137 1042.68 36.2556C1007.81 42.2222 974.878 51.9596 945.542 66.1715C901.902 87.4382 884.838 123.881 891.947 165.687C897.239 196.615 915.929 230.45 947.301 262.883C1026.8 345.023 1098.42 436.145 1159.26 505.133Z" fill="#16A2FF"/>
</svg>
